<!DOCTYPE svg PUBLIC "-//W3C//DTD SVG 20010904//EN" "http://www.w3.org/TR/2001/REC-SVG-20010904/DTD/svg10.dtd">
<svg version="1.0" xmlns="http://www.w3.org/2000/svg" width="22px" height="24px" viewBox="0 0 220 240" preserveAspectRatio="xMidYMid meet">
<g id="layer101" fill="#c3c3c3" stroke="none">
 <path d="M52 187 c-29 -29 -52 -59 -52 -68 0 -20 102 -119 123 -119 29 0 19 32 -25 77 l-42 43 42 43 c23 23 42 50 42 60 0 32 -35 17 -88 -36z"/>
 <path d="M132 187 c-29 -29 -52 -59 -52 -68 0 -20 102 -119 123 -119 29 0 19 32 -25 77 l-42 43 42 43 c23 23 42 50 42 60 0 32 -35 17 -88 -36z"/>
 </g>

</svg>