<?xml version="1.0" encoding="utf-8"?>
<!-- Generator: Adobe Illustrator 16.0.0, SVG Export Plug-In . SVG Version: 6.00 Build 0)  -->
<!DOCTYPE svg PUBLIC "-//W3C//DTD SVG 1.1//EN" "http://www.w3.org/Graphics/SVG/1.1/DTD/svg11.dtd">
<svg version="1.1" id="圖層_1" xmlns="http://www.w3.org/2000/svg" xmlns:xlink="http://www.w3.org/1999/xlink" x="0px" y="0px"
	 width="44.971px" height="50px" viewBox="0 0 44.971 50" enable-background="new 0 0 44.971 50" xml:space="preserve">
<g>
	<g>
		<path fill="#E5E5E5" d="M9.688,24.992c-0.001,0.646,0.248,1.253,0.702,1.707l19.608,19.607c0.453,0.454,1.058,0.703,1.703,0.703
			c0.645,0,1.249-0.249,1.702-0.703l1.443-1.441c0.453-0.454,0.703-1.059,0.703-1.704c0-0.645-0.25-1.249-0.703-1.702L18.378,24.991
			l16.45-16.45c0.938-0.938,0.938-2.466,0-3.406l-1.442-1.442C32.933,3.24,32.327,2.99,31.683,2.99s-1.25,0.25-1.703,0.703
			L10.39,23.282C9.936,23.737,9.687,24.344,9.688,24.992z"/>
	</g>
</g>
</svg>
