<?xml version="1.0" encoding="utf-8"?>
<!-- Generator: Adobe Illustrator 16.0.0, SVG Export Plug-In . SVG Version: 6.00 Build 0)  -->
<!DOCTYPE svg PUBLIC "-//W3C//DTD SVG 1.1//EN" "http://www.w3.org/Graphics/SVG/1.1/DTD/svg11.dtd">
<svg version="1.1" id="圖層_1" xmlns="http://www.w3.org/2000/svg" xmlns:xlink="http://www.w3.org/1999/xlink" x="0px" y="0px"
	 width="44.969px" height="50px" viewBox="0 0 44.969 50" enable-background="new 0 0 44.969 50" xml:space="preserve">
<path opacity="0.6" fill="#FFFFFF" enable-background="new    " d="M5.54,24.863c-0.627,8.8,6.021,16.47,14.821,17.097
	c8.802,0.626,16.471-6.022,17.098-14.823s-6.022-16.47-14.823-17.097C13.836,9.414,6.167,16.063,5.54,24.863z M16.636,24.709
	l7.124-6.177c0.557-0.482,1.397-0.423,1.88,0.134c0.483,0.558,0.424,1.397-0.134,1.881L19.39,25.85l5.304,6.116
	c0.482,0.558,0.424,1.397-0.134,1.882c-0.277,0.239-0.629,0.346-0.969,0.321c-0.341-0.024-0.672-0.179-0.912-0.456l-6.177-7.124
	C16.02,26.031,16.079,25.191,16.636,24.709z"/>
</svg>
