<?xml version="1.0" encoding="iso-8859-1"?>
<!-- Generator: Adobe Illustrator 16.0.0, SVG Export Plug-In . SVG Version: 6.00 Build 0)  -->
<!DOCTYPE svg PUBLIC "-//W3C//DTD SVG 1.1//EN" "http://www.w3.org/Graphics/SVG/1.1/DTD/svg11.dtd">
<svg version="1.1" xmlns="http://www.w3.org/2000/svg" xmlns:xlink="http://www.w3.org/1999/xlink" x="0px" y="0px" width="250px"
	 height="76px" viewBox="0 0 250 76" style="enable-background:new 0 0 250 76;" xml:space="preserve">
<g id="&#x80CC;&#x666F;_xA0_&#x5F71;&#x50CF;_1_" style="display:none;">
	
		<image style="display:inline;overflow:visible;" width="191" height="58" id="&#x80CC;&#x666F;_xA0_&#x5F71;&#x50CF;" xlink:href="BEDA84B6.jpg"  transform="matrix(1.3079 0 0 1.3079 0.1987 -381.3931)">
	</image>
	
		<image style="display:inline;overflow:visible;" width="191" height="58" id="&#x80CC;&#x666F;_xA0_&#x5F71;&#x50CF;_2_" xlink:href="BEDA84BA.jpg"  transform="matrix(1.3079 0 0 1.3079 0.1987 -472.7271)">
	</image>
	
		<image style="display:inline;overflow:visible;" width="191" height="58" id="&#x80CC;&#x666F;_xA0_&#x5F71;&#x50CF;_3_" xlink:href="BEDA84BD.jpg"  transform="matrix(1.3079 0 0 1.3079 0.1987 -288.7266)">
	</image>
	
		<image style="display:inline;overflow:visible;" width="191" height="58" id="&#x80CC;&#x666F;_xA0_&#x5F71;&#x50CF;_4_" xlink:href="BEDA84BE.jpg"  transform="matrix(1.3079 0 0 1.3079 0.1987 -192.7266)">
	</image>
	
		<image style="display:inline;overflow:visible;" width="191" height="58" id="&#x80CC;&#x666F;_xA0_&#x5F71;&#x50CF;_5_" xlink:href="BEDA84BC.jpg"  transform="matrix(1.3079 0 0 1.3079 0.1987 -96.7266)">
	</image>
	
		<image style="display:inline;overflow:visible;" width="191" height="58" id="&#x80CC;&#x666F;_xA0_&#x5F71;&#x50CF;_6_" xlink:href="BEDA84BB.jpg"  transform="matrix(1.3079 0 0 1.3079 0.1987 -0.0596)">
	</image>
</g>
<g id="&#x65C5;&#x96AA;_1_">
	<g id="&#x7FA4;&#x7D44;_2_1_">
	</g>
	<g id="&#x7F8E;&#x5546;&#x5B89;&#x9054;&#x65C5;&#x96AA;">
		<g id="&#x6A62;&#x5713;_1_&#x62F7;&#x8C9D;_9_2_">
			<g>
				<ellipse style="fill:#13B5B1;" cx="40.65" cy="37.808" rx="33.354" ry="33.581"/>
			</g>
		</g>
		<g id="&#x5713;&#x89D2;&#x77E9;&#x5F62;_1_2_">
			<g>
				<path style="fill:#00A0E9;" d="M54.133,17.089H34.205l-9.878,9.925v28.657c0,1.578,1.271,2.856,2.839,2.856h26.967
					c1.568,0,2.838-1.278,2.838-2.856V19.945C56.972,18.368,55.701,17.089,54.133,17.089z"/>
			</g>
			<g>
				<path style="fill:none;stroke:#FFFFFF;stroke-miterlimit:10;" d="M54.133,17.089H34.205l-9.878,9.925v28.657
					c0,1.578,1.271,2.856,2.839,2.856h26.967c1.568,0,2.838-1.278,2.838-2.856V19.945C56.972,18.368,55.701,17.089,54.133,17.089z"
					/>
			</g>
		</g>
		<g id="&#x591A;&#x908A;&#x5F62;_1_2_">
			<g>
				<polygon style="fill:#00A0E9;" points="25.344,26.067 33.362,26.067 33.362,17.994 				"/>
			</g>
			<g>
				<polygon style="fill:none;stroke:#FFFFFF;stroke-miterlimit:10;" points="25.344,26.067 33.362,26.067 33.362,17.994 				"/>
			</g>
		</g>
		<g id="&#x77E9;&#x5F62;_2_2_">
			<g>
				<rect x="31.424" y="34.236" style="fill:#FFFFFF;" width="19.871" height="2.857"/>
			</g>
		</g>
		<g id="&#x77E9;&#x5F62;_2_&#x62F7;&#x8C9D;_2_2_">
			<g>
				<rect x="31.424" y="41.381" style="fill:#FFFFFF;" width="19.871" height="2.857"/>
			</g>
		</g>
		<g id="&#x77E9;&#x5F62;_2_&#x62F7;&#x8C9D;_4_2_">
			<g>
				<rect x="31.424" y="48.525" style="fill:#FFFFFF;" width="11.354" height="2.857"/>
			</g>
		</g>
		<g>
			<path style="fill:#333333;" d="M110.514,49.231c-4.457-0.335-8.764-2.033-11.293-5.686c-2.204,3.602-6.21,4.939-11.193,5.711
				l-0.676-1.235c7.162-1.08,9.24-4.373,9.791-5.634h-8.764V41.23h9.165c0.175-0.618,0.25-1.415,0.25-1.853
				c0-0.231-0.025-0.489-0.025-0.721h2.754c0.175,0,0.25,0.077,0.25,0.206c0,0.154-0.1,0.36-0.2,0.54
				c-0.05,0.412-0.15,1.106-0.375,1.827h10.016v1.157h-8.814c0.626,1.132,2.679,4.733,9.69,5.608L110.514,49.231z M100.573,32.946
				h7.312v1.157h-7.312v2.882h10.216v1.132H87.778v-1.132h10.041v-2.882h-7.086v-1.157h7.086v-2.804H88.98v-1.158h6.16
				c-0.551-0.978-1.277-2.007-2.304-2.881l0.876-0.875c0.551,0.257,2.529,1.08,3.831,2.367l-1.578,1.389h6.11l-1.001-0.592
				c0.876-0.978,1.677-2.032,2.153-3.318l2.679,1.209c0.075,0.025,0.15,0.077,0.15,0.18c0,0.232-0.401,0.412-0.551,0.463
				c-0.851,0.746-1.652,1.363-2.854,2.059h7.086v1.158h-9.165V32.946z"/>
			<path style="fill:#333333;" d="M135.926,28.624v1.132h-6.66l1.728,1.106c0.101,0.077,0.15,0.154,0.15,0.257
				c0,0.129-0.175,0.361-0.651,0.438c-0.5,0.515-1.902,1.75-2.879,2.599h7.061v12.606c0,1.929-0.65,2.237-2.504,2.237h-2.729
				l-0.501-1.312c0.977,0.18,1.928,0.18,2.078,0.18c0.776,0,1.026-0.18,1.026-1.209V38.4c-0.325,0.797-0.751,0.849-1.553,0.849
				h-3.605c-1.678,0-1.853-0.36-1.853-1.981v-1.955h-2.079c-0.3,2.83-2.229,4.04-5.409,5.274l-0.776-1.055
				c2.579-1.081,3.556-2.109,3.63-4.22h-3.806v13.919h-2.629V34.155h5.684c-0.351-1.209-1.127-2.675-2.028-3.808l0.852-0.592h-5.659
				v-1.132h10.241v-1.801c0-0.617-0.05-0.978-0.1-1.415l2.58,0.077c0.1,0,0.325,0.026,0.325,0.257c0,0.129-0.075,0.361-0.15,0.516
				v2.366H135.926z M118.924,29.756c0.551,0.412,2.579,2.238,3.405,3.19l-2.253,1.209h7.211l-1.151-0.694
				c0.901-1.004,1.753-2.29,2.229-3.705H118.924z M129.19,46.967h-9.69V40.87h9.69V46.967z M126.687,42.027h-4.708v3.782h4.708
				V42.027z M132.045,35.313h-4.582v1.904c0,0.746,0,0.875,0.852,0.875h1.227c0.576,0,0.576-0.154,0.601-1.698
				c0.401,0.181,0.952,0.438,1.903,0.644V35.313z"/>
			<path style="fill:#333333;" d="M157.908,49.359c-1.753-1.338-3.431-2.393-6.335-3.627c-4.007,3.087-10.367,3.189-12.445,3.216
				l-0.601-1.261c1.478,0.025,6.886,0.154,10.742-2.805c-3.882-1.26-7.287-1.672-8.438-1.801c1.452-2.032,2.254-3.344,3.655-5.84
				h-6.485v-1.157h7.111c1.428-2.676,1.828-4.014,2.153-5.146l2.705,0.85c0.075,0.025,0.2,0.103,0.2,0.23
				c0,0.232-0.15,0.361-0.501,0.644c-0.226,0.464-1.151,2.265-1.803,3.422h12.87v1.157h-4.907c-0.176,1.981-1.027,4.966-2.805,7.05
				c2.379,0.771,4.707,1.672,6.785,3.061L157.908,49.359z M160.212,28.599v5.196h-2.63v-4.039h-16.476v4.039h-2.629v-5.196h9.515
				v-1.801c0-0.231-0.025-0.798-0.125-1.467l2.754,0.103c0.15,0,0.251,0.078,0.251,0.232c0,0.129-0.051,0.359-0.15,0.617v2.315
				H160.212z M147.241,37.242c-1.428,2.521-2.129,3.628-3.08,5.043c3.581,0.54,6.01,1.184,6.436,1.312
				c0.676-0.823,1.978-2.495,2.504-6.354H147.241z"/>
			<path style="fill:#333333;" d="M167.921,36.574v7.563c0,3.422,3.882,3.422,6.06,3.422h6.235c1.553,0,4.432-0.18,5.959-0.386
				l-0.425,1.518h-13.897c-2.203,0-4.031-0.643-5.283-2.366c-0.751,0.823-1.929,1.774-2.454,2.161
				c-0.125,0.386-0.226,0.669-0.426,0.669c-0.025,0-0.226-0.052-0.275-0.206l-0.801-1.93c0.926-0.36,1.527-0.644,2.829-1.621v-7.666
				h-2.504v-1.157H167.921z M166.043,32.663c-1.728-4.064-2.654-5.325-3.205-6.021l0.977-0.822c1.027,0.978,3.181,3.241,4.407,4.914
				L166.043,32.663z M178.463,39.378h4.958v1.157h-4.958v2.213h6.937v1.157h-6.937v2.753h-2.604v-2.753h-6.936v-1.157h6.936v-2.213
				h-4.857v-1.157h4.857v-2.161h-6.359v-1.132h3.706c-0.401-1.235-0.701-1.827-1.378-3.036l0.802-0.488h-3.605v-1.158h6.886v-2.314
				h-5.184V27.93h5.184v-1.08c0-0.283-0.051-0.979-0.101-1.519l2.604,0.129c0.1,0,0.25,0.025,0.25,0.231s-0.1,0.515-0.175,0.669
				v1.569h5.233v1.158h-5.233v2.314h6.911v1.158h-3.981l1.603,0.694c0.05,0.026,0.15,0.154,0.15,0.231
				c0,0.258-0.326,0.387-0.477,0.438c-0.726,0.85-1.201,1.363-2.028,2.161h4.207v1.132h-6.41V39.378z M174.507,36.085h5.459
				l-0.977-0.464c0.851-1.439,1.126-2.135,1.427-3.061h-7.137c0.201,0.18,1.778,1.672,2.604,2.727L174.507,36.085z"/>
			<path style="fill:#333333;" d="M192.607,31.454v3.653h4.607c-0.05,12.632-0.4,13.866-3.706,13.866h-2.178l-0.501-1.363
				c0.776,0.206,1.478,0.206,1.678,0.206c1.527,0,1.678-0.721,1.853-1.75c0.251-1.44,0.401-6.071,0.376-9.827h-2.153
				c-0.101,6.174-1.478,9.956-4.257,12.812l-0.977-0.823c2.304-3.164,2.779-6.097,2.779-12.632v-4.142h-2.304v-1.157h3.956v-3.319
				c0-0.282-0.05-1.157-0.075-1.44l2.579,0.077c0.101,0,0.2,0.077,0.2,0.206c0,0.154-0.125,0.411-0.2,0.566v3.91h3.581v1.157
				H192.607z M201.321,30.297c-1.652,2.752-2.93,4.115-3.48,4.707l-1.201-0.592c1.928-2.418,3.505-6.045,4.056-9.235l2.854,0.721
				c0.075,0.025,0.226,0.128,0.226,0.282c0,0.258-0.325,0.361-0.45,0.412c-0.701,1.441-1.052,2.084-1.327,2.572h8.964v1.133H201.321
				z M210.235,49.103c-4.432-3.293-6.185-8.284-6.761-13.224c-0.225,0.231-0.5,0.488-0.775,0.771v12.555h-2.479V39.018
				c-0.801,0.721-1.252,1.08-1.777,1.518l-1.027-0.951c3.882-3.576,6.085-7.744,6.36-8.387l2.454,1.286
				c0.075,0.025,0.175,0.128,0.175,0.257c0,0.232-0.175,0.334-0.601,0.515c-0.4,0.515-0.951,1.184-2.329,2.599l2.63,0.025
				c0.024,0.771,0.05,1.544,0.3,3.087c1.228-1.261,2.504-3.345,2.88-4.167l1.753,1.749c0.05,0.052,0.1,0.129,0.1,0.206
				c0,0.129-0.125,0.309-0.425,0.386c-1.127,1.106-2.304,2.136-3.981,3.345c0.501,2.135,1.828,5.402,4.481,7.666L210.235,49.103z"/>
			<path style="fill:#333333;" d="M220.499,27.518l-2.704,6.74c2.579,3.165,2.579,5.712,2.579,6.098c0,1.132-0.426,2.393-1.427,3.01
				c-0.626,0.386-1.428,0.386-2.229,0.335l-0.727-1.415c0.325,0.128,0.602,0.231,0.951,0.231c1.103,0,1.202-1.646,1.202-2.341
				c0-2.805-1.502-4.709-2.003-5.352l1.753-7.229h-1.929v21.636h-2.303V26.463h6.835V27.518z M225.808,47.688
				c-0.65-0.36-1.352-0.798-2.504-2.109c-1.202,1.234-1.853,1.903-3.855,3.37l-1.027-0.746c2.329-2.213,4.257-4.939,5.033-7.203
				l2.203,1.132c0.101,0.051,0.201,0.154,0.201,0.334c0,0.181-0.201,0.309-0.401,0.412c-0.375,0.565-0.575,0.823-0.851,1.157
				c0.901,1.569,1.452,2.187,1.902,2.649L225.808,47.688z M228.888,25.537c1.402,3.318,4.057,5.506,7.212,7.049l-0.752,1.106
				c-2.504-0.978-5.107-2.393-8.088-5.712c-1.953,2.6-3.73,4.168-6.761,5.943l-1.001-0.926c4.457-3.088,5.584-6.072,6.06-7.461
				H228.888z M227.21,35.441v5.146h-5.859v-5.146H227.21z M223.279,36.6v2.855h2.003V36.6H223.279z M223.654,33.512v-1.131h7.612
				v1.131H223.654z M234.947,48.871c-1.127-0.489-2.679-1.235-4.457-2.959c-1.502,1.75-2.704,2.65-3.38,3.164l-1.052-0.643
				c2.153-2.315,3.38-4.271,4.532-7.332l2.253,1.234c0.15,0.077,0.226,0.129,0.226,0.258c0,0.206-0.226,0.309-0.4,0.386
				c-0.426,0.592-0.576,0.823-0.852,1.209c1.502,2.059,3.255,3.241,3.906,3.679L234.947,48.871z M234.571,35.441v5.146h-5.934
				v-5.146H234.571z M230.565,36.6v2.855h2.028V36.6H230.565z"/>
		</g>
	</g>
</g>
<g id="&#x5F71;&#x50CF;_xA0_23_1_">
	<g id="&#x611B;_&#x5FC3;_&#x6350;_&#x8D08;">
	</g>
</g>
<g id="&#x5F71;&#x50CF;_xA0_33_1_">
	<g id="&#x65C5;_&#x904A;_&#x8B1B;_&#x5EA7;">
	</g>
</g>
<g id="&#x5F71;&#x50CF;_xA0_43_1_">
	<g id="&#x5F71;&#x50CF;_xA0_36_xA0_&#x5F71;&#x50CF;_1_" style="display:none;">
		
			<image style="display:inline;overflow:visible;" width="52" height="52" id="&#x5F71;&#x50CF;_xA0_36_xA0_&#x5F71;&#x50CF;" xlink:href="BEDA84BA.png"  transform="matrix(1 0 0 1 34.5 -369.334)">
		</image>
	</g>
	<g id="&#x5BEB;&#x597D;&#x6587;A&#x597D;&#x5EB7;">
	</g>
</g>
<g id="&#x5F71;&#x50CF;_xA0_63_1_">
	<g id="&#x5F71;&#x50CF;_xA0_46_xA0_&#x5F71;&#x50CF;_1_" style="display:none;">
		
			<image style="display:inline;overflow:visible;" width="52" height="52" id="&#x5F71;&#x50CF;_xA0_46_xA0_&#x5F71;&#x50CF;" xlink:href="BEDA84B6.png"  transform="matrix(1 0 0 1 34.5 -369.334)">
		</image>
	</g>
	<g id="&#x7FA4;&#x7D44;_5_1_">
	</g>
	<g id="&#x4FE1;&#x7528;&#x5361;&#x512A;&#x60E0;">
	</g>
</g>
<g id="&#x5F71;&#x50CF;_xA0_71_1_">
	<g id="&#x5178;_&#x85CF;_&#x65C5;_&#x904A;">
	</g>
</g>
</svg>
