<?xml version="1.0" encoding="iso-8859-1"?>
<!-- Generator: Adobe Illustrator 16.0.0, SVG Export Plug-In . SVG Version: 6.00 Build 0)  -->
<!DOCTYPE svg PUBLIC "-//W3C//DTD SVG 1.1//EN" "http://www.w3.org/Graphics/SVG/1.1/DTD/svg11.dtd">
<svg version="1.1" xmlns="http://www.w3.org/2000/svg" xmlns:xlink="http://www.w3.org/1999/xlink" x="0px" y="0px" width="250px"
	 height="76px" viewBox="0 0 250 76" style="enable-background:new 0 0 250 76;" xml:space="preserve">
<g id="&#x80CC;&#x666F;_xA0_&#x5F71;&#x50CF;_1_" style="display:none;">
	
		<image style="display:inline;overflow:visible;" width="191" height="58" id="&#x80CC;&#x666F;_xA0_&#x5F71;&#x50CF;" xlink:href="E1880B21.jpg"  transform="matrix(1.3079 0 0 1.3079 0.1987 -284.7261)">
	</image>
	
		<image style="display:inline;overflow:visible;" width="191" height="58" id="&#x80CC;&#x666F;_xA0_&#x5F71;&#x50CF;_2_" xlink:href="E1880B23.jpg"  transform="matrix(1.3079 0 0 1.3079 0.1987 -376.0601)">
	</image>
	
		<image style="display:inline;overflow:visible;" width="191" height="58" id="&#x80CC;&#x666F;_xA0_&#x5F71;&#x50CF;_3_" xlink:href="E1880B26.jpg"  transform="matrix(1.3079 0 0 1.3079 0.1987 -192.0596)">
	</image>
	
		<image style="display:inline;overflow:visible;" width="191" height="58" id="&#x80CC;&#x666F;_xA0_&#x5F71;&#x50CF;_4_" xlink:href="E1880B27.jpg"  transform="matrix(1.3079 0 0 1.3079 0.1987 -96.0596)">
	</image>
	
		<image style="display:inline;overflow:visible;" width="191" height="58" id="&#x80CC;&#x666F;_xA0_&#x5F71;&#x50CF;_5_" xlink:href="E1880B22.jpg"  transform="matrix(1.3079 0 0 1.3079 0.1987 -0.0596)">
	</image>
	
		<image style="display:inline;overflow:visible;" width="191" height="58" id="&#x80CC;&#x666F;_xA0_&#x5F71;&#x50CF;_6_" xlink:href="E1880B2D.jpg"  transform="matrix(1.3079 0 0 1.3079 0.1987 96.6074)">
	</image>
</g>
<g id="&#x65C5;&#x96AA;_1_">
	<g id="&#x7FA4;&#x7D44;_2_1_">
	</g>
	<g id="&#x7F8E;&#x5546;&#x5B89;&#x9054;&#x65C5;&#x96AA;">
	</g>
</g>
<g id="&#x5F71;&#x50CF;_xA0_23_1_">
	<g id="&#x611B;_&#x5FC3;_&#x6350;_&#x8D08;">
		<g id="&#x6A62;&#x5713;_1_&#x62F7;&#x8C9D;_8_2_">
			<g>
				<ellipse style="fill:#F29C9F;" cx="40.65" cy="37.808" rx="33.354" ry="33.581"/>
			</g>
		</g>
		<g id="&#x5F62;&#x72C0;_1_2_">
			<g>
				<path style="fill:#BA1B21;" d="M40.64,29.665c-7.131-14.072-21.993-8.677-21.993,5.545c-0.058,8.971,12.882,17.22,12.882,17.22
					s8.585,6.928,9.144,8.952c0.479-1.985,9.098-9.048,9.098-9.048s12.939-8.25,12.881-17.222
					C62.651,20.95,47.714,15.45,40.64,29.665z"/>
			</g>
			<g>
				<path style="fill:none;stroke:#FFFFFF;stroke-miterlimit:10;" d="M40.64,29.665c-7.131-14.072-21.993-8.677-21.993,5.545
					c-0.058,8.971,12.882,17.22,12.882,17.22s8.585,6.928,9.144,8.952c0.479-1.985,9.098-9.048,9.098-9.048
					s12.939-8.25,12.881-17.222C62.651,20.95,47.714,15.45,40.64,29.665z"/>
			</g>
		</g>
		<g>
			<path style="fill:#333333;" d="M108.958,49.282c-3.5-0.206-7.893-1.029-10.984-2.393c-3.448,1.519-7.177,2.238-10.932,2.419
				l-0.767-1.313c3.321-0.077,6.641-0.798,9.655-2.213c-1.609-1.028-2.631-2.237-2.963-2.649c-2.018,1.132-3.346,1.595-4.087,1.878
				l-0.843-1.055c4.036-1.544,5.875-4.014,6.386-4.733c-0.971-0.386-0.996-1.158-0.996-1.955v-2.572
				c0-0.361-0.026-0.979-0.077-1.338l2.427,0.103c0.076,0,0.255,0.052,0.255,0.206c0,0.076-0.077,0.23-0.205,0.565v2.856
				c0,0.951,0.281,1.157,1.481,1.157h2.555c0.817,0,1.788,0,2.069-2.367c1.201,0.746,1.865,0.875,2.248,0.927
				c-0.741,2.264-1.43,2.572-3.295,2.572h-3.167c-0.434,0.488-0.792,0.849-1.277,1.286h8.889v1.132
				c-2.248,2.496-4.7,3.808-5.236,4.091c2.248,1.029,6.258,2.007,9.681,2.084L108.958,49.282z M97.719,31.558
				c-0.639-1.338-1.251-2.213-1.941-3.113l1.2-0.85c1.277,0.824,2.682,2.316,3.014,2.676l-1.813,1.287h4.674l-0.689-0.464
				c1.328-1.569,2.299-3.447,2.529-3.987l2.529,1.389c0.102,0.052,0.153,0.206,0.153,0.283c0,0.154-0.127,0.258-0.664,0.463
				c-1.021,0.824-1.992,1.57-3.065,2.316h6.079v4.63h-2.529v-3.499H89.035v3.499h-2.478v-4.63h4.776
				c-0.817-1.699-1.558-2.65-1.89-3.063l0.996-0.822c1.481,0.951,2.401,1.749,3.295,2.623l-1.711,1.262H97.719z M92.355,34.927
				c-0.46,1.363-1.967,4.451-2.529,5.377l-2.197-1.44c0.664-0.644,2.197-2.161,3.5-4.528L92.355,34.927z M106.557,26.618
				c0.051,0.051,0.077,0.103,0.077,0.154c0,0.103-0.077,0.205-0.281,0.205c-0.128,0-0.281-0.025-0.511-0.129
				c-4.215,0.541-9.068,0.798-16.654,0.721l-0.613-1.209c8.506,0.025,14.56-0.643,16.578-1.286L106.557,26.618z M95.012,41.822
				c0.537,0.746,1.507,1.826,3.014,2.881c1.711-1.055,2.554-2.032,3.244-2.881H95.012z M99.277,37.448
				c-0.613-1.363-1.43-2.624-2.146-3.524l0.971-0.9c0.919,0.617,2.273,1.698,3.193,2.649L99.277,37.448z M106.021,39.893
				c-0.639-2.265-1.89-4.374-2.452-5.249l1.047-0.848c0.919,0.848,3.014,3.344,3.678,4.244L106.021,39.893z"/>
			<path style="fill:#333333;" d="M132.262,34.464c-0.23,3.808-1.099,8.464-2.146,10.856l-2.58-1.646
				c2.401-3.858,3.167-8.387,3.346-9.467L132.262,34.464z M137.191,31.686c0.281,0,0.408,0.129,0.408,0.283
				c0,0.077-0.025,0.154-0.229,0.746V46.35c0,1.029,0.256,1.39,1.532,1.39h4.036c0.843,0,2.401,0,3.116-5.66
				c0.92,0.617,2.018,1.08,2.631,1.286c-1.175,4.965-2.4,5.506-4.751,5.506h-6.539c-2.35,0-2.81-1.004-2.81-2.753V33.461
				c0-0.875-0.153-1.698-0.204-1.878L137.191,31.686z M142.504,31.042c-0.868-0.668-4.035-3.164-7.561-4.578l0.664-1.158
				c2.963,0.643,7.382,2.624,8.685,3.422L142.504,31.042z M149.171,43.186c-0.689-3.576-2.248-7.589-3.219-9.159l1.176-0.72
				c1.788,2.032,4.01,5.84,4.904,8.36L149.171,43.186z"/>
			<path style="fill:#333333;" d="M178.068,31.558v1.157h-2.427V37.5c0.689-0.36,1.941-1.003,2.069-1.106l0.076,1.106
				c-0.383,0.309-0.868,0.694-2.146,1.543v6.869c0,1.518,0,2.959-2.631,2.959h-2.478l-0.358-1.286
				c1.354,0.154,1.584,0.18,1.865,0.18c1.047,0,1.072-0.463,1.072-1.39v-5.711c-0.715,0.463-2.018,1.313-2.146,1.39
				c-0.255,0.411-0.28,0.463-0.434,0.463c-0.077,0-0.153-0.052-0.205-0.154l-0.817-1.93c0.639-0.18,2.325-1.003,3.602-1.621v-6.097
				h-3.116v-1.157h3.116v-4.322c0-0.232-0.025-0.9-0.076-1.725l2.528,0.154c0.128,0,0.307,0.078,0.307,0.207
				c0,0.128-0.153,0.385-0.229,0.539v5.146H178.068z M182.155,43.648v5.402h-2.529v-15.05h12.721v12.22
				c0,1.646-0.179,2.65-2.375,2.65h-2.683l-0.435-1.313c0.358,0.077,1.176,0.206,1.941,0.206c0.92,0,1.022-0.206,1.022-1.184v-2.933
				H182.155z M191.657,26.411V32.2h-11.162v-5.789H191.657z M189.818,38.22v-3.061h-7.663v3.061H189.818z M189.818,42.49v-3.138
				h-7.663v3.138H189.818z M182.973,27.569v3.499h6.207v-3.499H182.973z"/>
			<path style="fill:#333333;" d="M215.7,44.574c0.128,0.052,0.229,0.154,0.229,0.258c0,0.128-0.204,0.257-0.435,0.36
				c-1.2,1.826-2.324,3.035-3.448,4.064l-1.123-0.694c1.072-1.569,2.043-3.268,2.375-5.146L215.7,44.574z M219.685,26.335v16.696
				h-7.075V26.335H219.685z M217.36,31.377v-3.885h-2.452v3.885H217.36z M214.908,32.509v3.988h2.452v-3.988H214.908z
				 M214.908,37.628v4.245h2.452v-4.245H214.908z M218.663,43.365c0.435,1.646,0.996,3.113,2.146,4.888l-1.073,0.85
				c-1.354-1.39-2.375-2.83-3.167-4.528L218.663,43.365z M229.979,29.036l-1.047-0.617c1.149-1.596,1.507-2.65,1.711-3.268
				l2.605,0.978c0.077,0.025,0.229,0.103,0.229,0.257c0,0.206-0.229,0.335-0.511,0.438c-0.791,0.85-1.66,1.596-2.554,2.213h3.908
				v8.746h-13.589v-8.746h3.524c-0.613-1.055-1.328-2.059-2.171-2.984l1.2-0.875c1.2,0.771,2.248,1.596,3.219,2.599l-1.609,1.261
				H229.979z M224.206,48.176v1.158h-2.504v-9.596h11.674v9.596h-2.529v-1.158H224.206z M226.224,32.792v-2.599h-3.014v2.599
				H226.224z M223.21,33.95v2.675h3.014V33.95H223.21z M230.847,43.288v-2.393h-6.641v2.393H230.847z M230.847,47.019v-2.572h-6.641
				v2.572H230.847z M231.945,32.792v-2.599h-3.27v2.599H231.945z M228.676,33.95v2.675h3.27V33.95H228.676z"/>
		</g>
	</g>
</g>
<g id="&#x5F71;&#x50CF;_xA0_33_1_">
	<g id="&#x65C5;_&#x904A;_&#x8B1B;_&#x5EA7;">
	</g>
</g>
<g id="&#x5F71;&#x50CF;_xA0_43_1_">
	<g id="&#x5F71;&#x50CF;_xA0_36_xA0_&#x5F71;&#x50CF;_1_" style="display:none;">
		
			<image style="display:inline;overflow:visible;" width="52" height="52" id="&#x5F71;&#x50CF;_xA0_36_xA0_&#x5F71;&#x50CF;" xlink:href="E1880B21.png"  transform="matrix(1 0 0 1 34.5 -272.667)">
		</image>
	</g>
	<g id="&#x5BEB;&#x597D;&#x6587;A&#x597D;&#x5EB7;">
	</g>
</g>
<g id="&#x5F71;&#x50CF;_xA0_63_1_">
	<g id="&#x5F71;&#x50CF;_xA0_46_xA0_&#x5F71;&#x50CF;_1_" style="display:none;">
		
			<image style="display:inline;overflow:visible;" width="52" height="52" id="&#x5F71;&#x50CF;_xA0_46_xA0_&#x5F71;&#x50CF;" xlink:href="E1880B2F.png"  transform="matrix(1 0 0 1 34.5 -272.667)">
		</image>
	</g>
	<g id="&#x7FA4;&#x7D44;_5_1_">
	</g>
	<g id="&#x4FE1;&#x7528;&#x5361;&#x512A;&#x60E0;">
	</g>
</g>
<g id="&#x5F71;&#x50CF;_xA0_71_1_">
	<g id="&#x5178;_&#x85CF;_&#x65C5;_&#x904A;">
	</g>
</g>
</svg>
