<?xml version="1.0" encoding="iso-8859-1"?>
<!-- Generator: Adobe Illustrator 16.0.0, SVG Export Plug-In . SVG Version: 6.00 Build 0)  -->
<!DOCTYPE svg PUBLIC "-//W3C//DTD SVG 1.1//EN" "http://www.w3.org/Graphics/SVG/1.1/DTD/svg11.dtd">
<svg version="1.1" xmlns="http://www.w3.org/2000/svg" xmlns:xlink="http://www.w3.org/1999/xlink" x="0px" y="0px" width="250px"
	 height="249.999px" viewBox="0 0 250 249.999" style="enable-background:new 0 0 250 249.999;" xml:space="preserve">
<g id="&#x80CC;&#x666F;_xA0_&#x5F71;&#x50CF;_1_" style="display:none;">
	
		<image style="display:inline;overflow:visible;" width="191" height="58" id="&#x80CC;&#x666F;_xA0_&#x5F71;&#x50CF;" xlink:href="CD675708.jpg"  transform="matrix(1.3079 0 0 1.3079 -581.1196 -188.7261)">
	</image>
	
		<image style="display:inline;overflow:visible;" width="191" height="58" id="&#x80CC;&#x666F;_xA0_&#x5F71;&#x50CF;_2_" xlink:href="CD675709.jpg"  transform="matrix(1.3079 0 0 1.3079 -581.1196 -280.0601)">
	</image>
	
		<image style="display:inline;overflow:visible;" width="191" height="58" id="&#x80CC;&#x666F;_xA0_&#x5F71;&#x50CF;_3_" xlink:href="CD67570F.jpg"  transform="matrix(1.3079 0 0 1.3079 -581.1196 -96.0596)">
	</image>
	
		<image style="display:inline;overflow:visible;" width="191" height="58" id="&#x80CC;&#x666F;_xA0_&#x5F71;&#x50CF;_4_" xlink:href="CD67570A.jpg"  transform="matrix(1.3079 0 0 1.3079 -581.1196 -0.0596)">
	</image>
	
		<image style="display:inline;overflow:visible;" width="191" height="58" id="&#x80CC;&#x666F;_xA0_&#x5F71;&#x50CF;_5_" xlink:href="CD67570B.jpg"  transform="matrix(1.3079 0 0 1.3079 -581.1196 95.9404)">
	</image>
	
		<image style="display:inline;overflow:visible;" width="191" height="58" id="&#x80CC;&#x666F;_xA0_&#x5F71;&#x50CF;_6_" xlink:href="CD675706.jpg"  transform="matrix(1.3079 0 0 1.3079 -581.1196 192.6074)">
	</image>
</g>
<g id="&#x65C5;&#x96AA;_1_">
	<g id="&#x7FA4;&#x7D44;_2_1_">
	</g>
	<g id="&#x7F8E;&#x5546;&#x5B89;&#x9054;&#x65C5;&#x96AA;">
	</g>
</g>
<g id="&#x5F71;&#x50CF;_xA0_23_1_">
	<g id="&#x611B;_&#x5FC3;_&#x6350;_&#x8D08;">
	</g>
</g>
<g id="&#x5F71;&#x50CF;_xA0_33_1_">
	<g id="&#x65C5;_&#x904A;_&#x8B1B;_&#x5EA7;">
	</g>
</g>
<g id="&#x5F71;&#x50CF;_xA0_43_1_">
	<g id="&#x5F71;&#x50CF;_xA0_36_xA0_&#x5F71;&#x50CF;_1_" style="display:none;">
		
			<image style="display:inline;overflow:visible;" width="52" height="52" id="&#x5F71;&#x50CF;_xA0_36_xA0_&#x5F71;&#x50CF;" xlink:href="CD675708.png"  transform="matrix(1 0 0 1 -546.8184 -176.667)">
		</image>
	</g>
	<g id="&#x5BEB;&#x597D;&#x6587;A&#x597D;&#x5EB7;">
	</g>
</g>
<g id="&#x5F71;&#x50CF;_xA0_63_1_">
	<g id="&#x5F71;&#x50CF;_xA0_46_xA0_&#x5F71;&#x50CF;_1_" style="display:none;">
		
			<image style="display:inline;overflow:visible;" width="52" height="52" id="&#x5F71;&#x50CF;_xA0_46_xA0_&#x5F71;&#x50CF;" xlink:href="CD675718.png"  transform="matrix(1 0 0 1 -546.8184 -176.667)">
		</image>
	</g>
	<g id="&#x7FA4;&#x7D44;_5_1_">
	</g>
	<g id="&#x4FE1;&#x7528;&#x5361;&#x512A;&#x60E0;">
	</g>
</g>
<g id="&#x5F71;&#x50CF;_xA0_71_1_">
	<g id="&#x5178;_&#x85CF;_&#x65C5;_&#x904A;">
	</g>
	<g>
		<g id="&#x6A62;&#x5713;_1_&#x62F7;&#x8C9D;_8_3_">
			<path style="fill:#F29C9F;" d="M125.296,1.555c-68.033,0-123.18,55.525-123.18,124.02c0,68.48,55.146,124.006,123.18,124.006
				c68.025,0,123.176-55.525,123.176-124.006C248.472,57.08,193.321,1.555,125.296,1.555z"/>
		</g>
		<g id="&#x5F62;&#x72C0;_1_3_">
			<g>
				<path style="fill:#BA1B21;" d="M125.26,95.497c-26.339-51.97-81.223-32.044-81.223,20.478
					c-0.211,33.129,47.574,63.589,47.574,63.589s31.704,25.584,33.768,33.064c1.771-7.335,33.602-33.418,33.602-33.418
					s47.785-30.467,47.57-63.596C206.551,63.313,151.385,43.001,125.26,95.497z"/>
			</g>
			<g>
				<path style="fill:none;stroke:#FFFFFF;stroke-width:5;stroke-miterlimit:10;" d="M125.26,95.497
					c-26.339-51.97-81.223-32.044-81.223,20.478c-0.211,33.129,47.574,63.589,47.574,63.589s31.704,25.584,33.768,33.064
					c1.771-7.335,33.602-33.418,33.602-33.418s47.785-30.467,47.57-63.596C206.551,63.313,151.385,43.001,125.26,95.497z"/>
			</g>
		</g>
	</g>
</g>
</svg>
