<?xml version="1.0" encoding="iso-8859-1"?>
<!-- Generator: Adobe Illustrator 16.0.0, SVG Export Plug-In . SVG Version: 6.00 Build 0)  -->
<!DOCTYPE svg PUBLIC "-//W3C//DTD SVG 1.1//EN" "http://www.w3.org/Graphics/SVG/1.1/DTD/svg11.dtd">
<svg version="1.1" xmlns="http://www.w3.org/2000/svg" xmlns:xlink="http://www.w3.org/1999/xlink" x="0px" y="0px" width="250px"
	 height="250px" viewBox="0 0 250 250" style="enable-background:new 0 0 250 250;" xml:space="preserve">
<g id="&#x80CC;&#x666F;_xA0_&#x5F71;&#x50CF;_1_" style="display:none;">
	
		<image style="display:inline;overflow:visible;" width="191" height="58" id="&#x80CC;&#x666F;_xA0_&#x5F71;&#x50CF;" xlink:href="D331C379.jpg"  transform="matrix(1.3079 0 0 1.3079 -866.106 86.9404)">
	</image>
	
		<image style="display:inline;overflow:visible;" width="191" height="58" id="&#x80CC;&#x666F;_xA0_&#x5F71;&#x50CF;_2_" xlink:href="D331C37B.jpg"  transform="matrix(1.3079 0 0 1.3079 -866.106 -4.3936)">
	</image>
	
		<image style="display:inline;overflow:visible;" width="191" height="58" id="&#x80CC;&#x666F;_xA0_&#x5F71;&#x50CF;_3_" xlink:href="D331C37E.jpg"  transform="matrix(1.3079 0 0 1.3079 -866.106 179.6069)">
	</image>
	
		<image style="display:inline;overflow:visible;" width="191" height="58" id="&#x80CC;&#x666F;_xA0_&#x5F71;&#x50CF;_4_" xlink:href="D331C37F.jpg"  transform="matrix(1.3079 0 0 1.3079 -866.106 275.6069)">
	</image>
	
		<image style="display:inline;overflow:visible;" width="191" height="58" id="&#x80CC;&#x666F;_xA0_&#x5F71;&#x50CF;_5_" xlink:href="D331C37A.jpg"  transform="matrix(1.3079 0 0 1.3079 -866.106 371.6069)">
	</image>
	
		<image style="display:inline;overflow:visible;" width="191" height="58" id="&#x80CC;&#x666F;_xA0_&#x5F71;&#x50CF;_6_" xlink:href="D331C375.jpg"  transform="matrix(1.3079 0 0 1.3079 -866.106 468.2739)">
	</image>
</g>
<g id="&#x65C5;&#x96AA;_1_">
	<g id="&#x7FA4;&#x7D44;_2_1_">
	</g>
	<g id="&#x7F8E;&#x5546;&#x5B89;&#x9054;&#x65C5;&#x96AA;">
	</g>
</g>
<g id="&#x5F71;&#x50CF;_xA0_23_1_">
	<g id="&#x611B;_&#x5FC3;_&#x6350;_&#x8D08;">
	</g>
</g>
<g id="&#x5F71;&#x50CF;_xA0_33_1_">
	<g id="&#x65C5;_&#x904A;_&#x8B1B;_&#x5EA7;">
	</g>
</g>
<g id="&#x5F71;&#x50CF;_xA0_43_1_">
	<g id="&#x5F71;&#x50CF;_xA0_36_xA0_&#x5F71;&#x50CF;_1_" style="display:none;">
		
			<image style="display:inline;overflow:visible;" width="52" height="52" id="&#x5F71;&#x50CF;_xA0_36_xA0_&#x5F71;&#x50CF;" xlink:href="D331C379.png"  transform="matrix(1 0 0 1 -831.8047 98.9995)">
		</image>
	</g>
	<g id="&#x5BEB;&#x597D;&#x6587;A&#x597D;&#x5EB7;">
	</g>
</g>
<g id="&#x5F71;&#x50CF;_xA0_63_1_">
	<g id="&#x5F71;&#x50CF;_xA0_46_xA0_&#x5F71;&#x50CF;_1_" style="display:none;">
		
			<image style="display:inline;overflow:visible;" width="52" height="52" id="&#x5F71;&#x50CF;_xA0_46_xA0_&#x5F71;&#x50CF;" xlink:href="D331C377.png"  transform="matrix(1 0 0 1 -831.8047 98.9995)">
		</image>
	</g>
	<g id="&#x7FA4;&#x7D44;_5_1_">
	</g>
	<g id="&#x4FE1;&#x7528;&#x5361;&#x512A;&#x60E0;">
	</g>
</g>
<g id="&#x5F71;&#x50CF;_xA0_71_1_">
	<g id="&#x5178;_&#x85CF;_&#x65C5;_&#x904A;">
	</g>
	<g>
		<g id="&#x6A62;&#x5713;_1_&#x62F7;&#x8C9D;_6_3_">
			<path style="fill:#F8B551;" d="M125.296,1.555c-68.033,0-123.18,55.525-123.18,124.019c0,68.484,55.146,124.01,123.18,124.01
				c68.025,0,123.176-55.525,123.176-124.01C248.472,57.08,193.321,1.555,125.296,1.555z"/>
		</g>
		<g>
			<path style="fill-rule:evenodd;clip-rule:evenodd;fill:#EB6100;stroke:#FFFFFF;stroke-width:5;stroke-miterlimit:10;" d="
				M125.419,105.948l29.822,11.649l-28.936,75.058c0,0-17.026,22.137-24.441,19.232C94.374,208.964,96.483,181,96.483,181
				L125.419,105.948z"/>
			<path style="fill-rule:evenodd;clip-rule:evenodd;fill:#EB6100;stroke:#FFFFFF;stroke-width:5;stroke-miterlimit:10;" d="
				M160.929,105.948l17.356-45.031c3.2-8.29-0.883-17.621-9.12-20.841c-8.229-3.214-17.498,0.897-20.694,9.186l-17.361,45.03
				L160.929,105.948z"/>
			<path style="fill-rule:evenodd;clip-rule:evenodd;fill:#EB6100;stroke:#FFFFFF;stroke-width:5;stroke-miterlimit:10;" d="
				M132.173,66.584l-18.035,47.861c-1.104,2.936-4.364,4.414-7.286,3.3c-2.913-1.114-4.385-4.396-3.273-7.332l18.032-47.866
				c1.106-2.936,4.371-4.414,7.292-3.299C131.816,60.361,133.284,63.644,132.173,66.584z"/>
		</g>
	</g>
</g>
</svg>
