<svg xmlns="http://www.w3.org/2000/svg" xmlns:xlink="http://www.w3.org/1999/xlink" width="22px" height="14px">
                       <path fill-rule="evenodd"  fill="rgb(151, 151, 151)"
                        d="M0.384,8.560 C0.857,8.350 2.493,7.372 2.991,7.152 C2.189,5.557 1.398,3.986 0.593,2.388 C0.967,2.222 1.321,2.064 1.677,1.909 C1.924,1.800 2.177,1.708 2.418,1.585 C2.537,1.524 2.623,1.546 2.736,1.630 C4.268,2.781 5.804,3.925 7.336,5.076 C7.447,5.158 7.530,5.178 7.653,5.124 C9.534,4.295 11.419,3.479 13.302,2.658 C14.833,1.990 16.363,1.316 17.895,0.651 C18.489,0.394 19.109,0.262 19.763,0.368 C20.375,0.466 20.916,0.744 21.270,1.455 C21.305,1.636 21.340,1.818 21.376,1.999 C21.281,3.277 20.600,3.976 19.761,4.453 C19.054,4.855 18.295,5.137 17.557,5.469 C17.207,5.626 16.852,5.772 16.504,5.936 C16.431,5.970 16.367,6.050 16.319,6.129 C15.132,8.080 13.945,10.030 12.770,11.991 C12.625,12.232 12.445,12.356 12.225,12.450 C11.557,12.734 10.894,13.030 10.196,13.336 C10.153,11.793 10.110,10.281 10.067,8.744 C8.325,9.480 6.542,10.143 4.612,9.835 C3.540,9.664 0.703,10.201 0.384,8.560 Z"/>
                       </svg>