<?xml version="1.0" encoding="utf-8"?>
<!-- Generator: Adobe Illustrator 23.0.2, SVG Export Plug-In . SVG Version: 6.00 Build 0)  -->
<svg version="1.1" id="圖層_1" xmlns="http://www.w3.org/2000/svg" xmlns:xlink="http://www.w3.org/1999/xlink" x="0px" y="0px"
	 viewBox="0 0 35 35" style="enable-background:new 0 0 35 35;" xml:space="preserve">
<style type="text/css">
	.st0{fill-rule:evenodd;clip-rule:evenodd;fill:#C1C1C1;}
	.st1{fill-rule:evenodd;clip-rule:evenodd;fill:#FFFFFF;}
	.st2{fill:none;}
	.st3{fill:#C1C1C1;stroke:#C1C1C1;stroke-width:0.8669;stroke-miterlimit:10;}
</style>
<g>
	<circle class="st0" cx="17.5" cy="17.5" r="17.5"/>
	<path class="st1" d="M27.4,13.2l-4.9-4.8H7.9v17.8l10.4,0l5.7,3.3v-3.4h3.3L27.4,13.2z"/>
	<g>
		<path class="st2" d="M15.6,15.2v-0.9h-0.2c-0.1,0-0.1,0-0.1,0.1v2.4h2c0.7,0,1.2-0.1,1.5-0.3c0.3-0.2,0.4-0.6,0.4-1
			c0-0.4-0.2-0.7-0.5-0.9c-0.3-0.2-0.7-0.3-1.3-0.3h-1v0.9H15.6z"/>
		<path class="st2" d="M17.5,17.9h-2.2v2.6c0,0.1,0,0.1,0.1,0.1h2.1c0.8,0,1.3-0.1,1.6-0.3c0.3-0.2,0.5-0.6,0.5-1
			C19.7,18.4,19,17.9,17.5,17.9z"/>
		<path class="st3" d="M20.3,18.1c-0.3-0.3-0.7-0.6-1.2-0.8c0.4-0.2,0.6-0.4,0.8-0.7c0.2-0.3,0.3-0.7,0.3-1.1c0-0.7-0.2-1.2-0.7-1.6
			c-0.5-0.4-1.1-0.6-2-0.6h-0.4v1h0.3c0.5,0,0.9,0.1,1.3,0.3c0.3,0.2,0.5,0.5,0.5,0.9c0,0.4-0.1,0.8-0.4,1c-0.3,0.2-0.8,0.3-1.5,0.3
			h-2v-2.4c0-0.2,0-1.2,0-1.2h-0.6c-0.2,0-0.3,0.1-0.4,0.2c-0.1,0.1-0.2,0.2-0.2,0.4v7.3c0,0.2,0.1,0.3,0.2,0.4
			c0.1,0.1,0.2,0.2,0.4,0.2h2.9c1,0,1.8-0.2,2.3-0.6c0.5-0.4,0.8-1,0.8-1.8C20.7,18.9,20.6,18.4,20.3,18.1z M19.2,20.3
			c-0.3,0.2-0.9,0.3-1.6,0.3h-2.1c-0.1,0-0.1,0-0.1-0.1v-2.6h2.2c1.4,0,2.1,0.5,2.1,1.4C19.7,19.8,19.5,20.1,19.2,20.3z"/>
	</g>
</g>
</svg>
