<?xml version="1.0" encoding="utf-8"?>
<!-- Generator: Adobe Illustrator 19.0.1, SVG Export Plug-In . SVG Version: 6.00 Build 0)  -->
<svg version="1.1" id="Capa_1" xmlns="http://www.w3.org/2000/svg" xmlns:xlink="http://www.w3.org/1999/xlink" x="0px" y="0px"
	 viewBox="-267 390.9 60 60" style="enable-background:new -267 390.9 60 60;" xml:space="preserve">
<style type="text/css">
	.st0{fill:#808080;}
</style>
<g>
	<path class="st0" d="M-210,394.9h-7v-3c0-0.5-0.5-1-1-1h-7c-0.5,0-1,0.5-1,1v3h-22v-3c0-0.5-0.5-1-1-1h-7c-0.5,0-1,0.5-1,1v3h-7
		c-0.5,0-1,0.5-1,1v54c0,0.5,0.5,1,1,1h54c0.5,0,1-0.5,1-1v-54C-209,395.3-209.5,394.9-210,394.9z M-224,392.9h5v6h-5V392.9z
		 M-255,392.9h5v6h-5V392.9z M-211,448.9h-52v-41h52V448.9z M-211,405.9h-52v-9h6v3c0,0.5,0.5,1,1,1h7c0.5,0,1-0.5,1-1v-3h22v3
		c0,0.5,0.5,1,1,1h7c0.5,0,1-0.5,1-1v-3h6V405.9z"/>
	<path class="st0" d="M-211,396.9v9h-52v-9h6v3c0,0.5,0.5,1,1,1h7c0.5,0,1-0.5,1-1v-3h22v3c0,0.5,0.5,1,1,1h7c0.5,0,1-0.5,1-1v-3
		H-211z"/>
	<path class="st0" d="M-229,413.9h-7h-2h-7h-2h-9v9v2v7v2v9h9h2h7h2h7h2h9v-9v-2v-7v-2v-9h-9H-229z M-236,415.9h7v7h-7V415.9z
		 M-229,431.9h-7v-7h7V431.9z M-245,424.9h7v7h-7V424.9z M-245,415.9h7v7h-7V415.9z M-254,415.9h7v7h-7V415.9z M-254,424.9h7v7h-7
		V424.9z M-247,440.9h-7v-7h7V440.9z M-238,440.9h-7v-7h7V440.9z M-229,440.9h-7v-7h7V440.9z M-220,440.9h-7v-7h7V440.9z
		 M-220,431.9h-7v-7h7V431.9z M-220,415.9v7h-7v-7H-220z"/>
</g>
<rect x="-259" y="399.1" class="st0" width="45.8" height="2.9"/>
</svg>
