<?xml version="1.0" encoding="utf-8"?>
<!-- Generator: Adobe Illustrator 23.0.2, SVG Export Plug-In . SVG Version: 6.00 Build 0)  -->
<svg version="1.1" id="圖層_1" xmlns="http://www.w3.org/2000/svg" xmlns:xlink="http://www.w3.org/1999/xlink" x="0px" y="0px"
	 viewBox="0 0 35 35" style="enable-background:new 0 0 35 35;" xml:space="preserve">
<style type="text/css">
	.st0{fill:#C1C1C1;}
	.st1{fill:#FFFFFF;}
</style>
<g>
	<path class="st0" d="M23.1,13.8h-1v0.3h-2.7c-0.3,0-0.5,0.2-0.5,0.5c0,0.3,0.2,0.5,0.5,0.5h2.7v2c0,2.5-2.1,4.4-4.5,4.4
		c-2.5,0-4.5-2-4.5-4.4v-2h2.6c0.3,0,0.5-0.2,0.5-0.5c0-0.3-0.2-0.5-0.5-0.5h-2.6v-0.3h-1c-0.1,0.2-0.3,0.3-0.6,0.3c0,0,0,0,0,0v3.5
		c0,3.3,2.8,6.1,6.1,6.1h0c3.3,0,6-2.7,6-6.1v-3.5C23.4,14.1,23.2,13.9,23.1,13.8z"/>
	<path class="st0" d="M17.5,0C7.8,0,0,7.8,0,17.5S7.8,35,17.5,35S35,27.2,35,17.5S27.2,0,17.5,0z M24.6,17.6c0,3.8-2.9,6.9-6.5,7.1
		v3.7c2.4-0.3,4.7-1.8,5.6-0.8c0.4,0.4,0,2.1,0,2.1H11.4c0,0-0.4-1.7,0-2.1c1-0.9,3.2,0.6,5.5,0.8v-3.7c-1.7-0.2-3.2-0.9-4.4-2.1
		c-1.4-1.4-2.1-3.2-2.1-5v-5.9c0-0.3,0.2-0.5,0.5-0.5c0.3,0,0.5,0.2,0.5,0.5v1c0,0,0,0,0,0c0.2,0,0.4,0.1,0.6,0.3h1v-0.1h2.6
		c0.3,0,0.5-0.2,0.5-0.5c0-0.3-0.2-0.5-0.5-0.5h-2.6v-1.3h2.6c0.3,0,0.5-0.2,0.5-0.5c0-0.3-0.2-0.5-0.5-0.5h-2.6
		c0.1-2.2,2.1-4.2,4.4-4.2c2.4,0,4.3,2,4.4,4.2h-2.6c-0.3,0-0.5,0.2-0.5,0.5c0,0.3,0.2,0.5,0.5,0.5h2.7v1.3h-2.7
		c-0.3,0-0.5,0.2-0.5,0.5c0,0.3,0.2,0.5,0.5,0.5h2.7V13h1c0.1-0.2,0.3-0.3,0.5-0.3v-1c0-0.3,0.2-0.5,0.5-0.5c0.3,0,0.5,0.2,0.5,0.5
		V17.6z"/>
	<path class="st1" d="M24.1,11.2c-0.3,0-0.5,0.2-0.5,0.5v1c-0.2,0-0.4,0.1-0.5,0.3h-1v-0.1h-2.7c-0.3,0-0.5-0.2-0.5-0.5
		c0-0.3,0.2-0.5,0.5-0.5h2.7v-1.3h-2.7c-0.3,0-0.5-0.2-0.5-0.5c0-0.3,0.2-0.5,0.5-0.5H22c-0.1-2.2-2.1-4.2-4.4-4.2
		c-2.4,0-4.3,2-4.4,4.2h2.6c0.3,0,0.5,0.2,0.5,0.5c0,0.3-0.2,0.5-0.5,0.5h-2.6v1.3h2.6c0.3,0,0.5,0.2,0.5,0.5c0,0.3-0.2,0.5-0.5,0.5
		h-2.6V13h-1c-0.1-0.2-0.3-0.3-0.6-0.3c0,0,0,0,0,0v-1c0-0.3-0.2-0.5-0.5-0.5c-0.3,0-0.5,0.2-0.5,0.5v5.9c0,1.9,0.8,3.7,2.1,5
		c1.2,1.2,2.7,1.9,4.4,2.1v3.7c-2.3-0.2-4.5-1.6-5.5-0.8c-0.4,0.4,0,2.1,0,2.1h12.2c0,0,0.4-1.7,0-2.1c-0.9-1-3.2,0.5-5.6,0.8v-3.7
		c3.6-0.3,6.5-3.4,6.5-7.1v-5.9C24.6,11.4,24.4,11.2,24.1,11.2z M23.6,17.6c0,3.4-2.7,6.1-6,6.1h0c-3.3,0-6.1-2.8-6.1-6.1v-3.5
		c0,0,0,0,0,0c0.3,0,0.5-0.1,0.6-0.3h1v0.3h2.6c0.3,0,0.5,0.2,0.5,0.5c0,0.3-0.2,0.5-0.5,0.5h-2.6v2c0,2.5,2.1,4.4,4.5,4.4
		c2.5,0,4.5-2,4.5-4.4v-2h-2.7c-0.3,0-0.5-0.2-0.5-0.5c0-0.3,0.2-0.5,0.5-0.5h2.7v-0.3h1c0.1,0.2,0.3,0.3,0.5,0.3V17.6z"/>
</g>
</svg>
