<?xml version="1.0" encoding="utf-8"?>
<!-- Generator: Adobe Illustrator 23.0.2, SVG Export Plug-In . SVG Version: 6.00 Build 0)  -->
<svg version="1.1" id="圖層_1" xmlns="http://www.w3.org/2000/svg" xmlns:xlink="http://www.w3.org/1999/xlink" x="0px" y="0px"
	 viewBox="0 0 59.89 32.84" style="enable-background:new 0 0 59.89 32.84;" xml:space="preserve">
<style type="text/css">
	.st0{fill:none;stroke:#E7261F;stroke-miterlimit:10;}
	.st1{fill:#E7261F;}
	.st2{fill:none;stroke:#000000;stroke-width:3;stroke-miterlimit:10;}
</style>
<g>
	<path d="M59.89,6.49c-0.66,1.91-2.07,3.22-3.64,4.38c-2.94,2.16-6.21,3.71-9.55,5.13c-7.96,3.37-16.21,5.85-24.55,8.06
		c-4.7,1.24-9.43,2.39-14.22,3.23c-1.51,0.26-3.02,0.32-4.5-0.17c-0.47-0.15-0.9-0.37-1.25-0.73c-0.62-0.63-0.71-1.49-0.25-2.24
		c0.34-0.55,0.76-1.04,1.26-1.45c0.41-0.33,0.4-0.61,0.15-1.04c-0.99-1.7-1.94-3.42-2.91-5.13c-0.83-1.47-0.46-2.48,1.12-3.04
		c1.28-0.46,2.51-0.37,3.71,0.28c1.83,0.99,3.69,1.94,5.52,2.94c0.4,0.22,0.71,0.24,1.12,0c2.29-1.36,4.65-2.62,7.01-3.86
		c0.55-0.29,0.55-0.3,0.02-0.64c-3.81-2.47-7.61-4.94-11.42-7.41C6.05,3.83,6.06,2.49,7.5,1.54c1.57-1.04,3.24-1.66,5.16-1.52
		c0.86,0.07,1.68,0.32,2.51,0.53c6.21,1.63,12.42,3.27,18.62,4.92c0.52,0.14,0.97,0.12,1.46-0.07c3.19-1.24,6.41-2.41,9.74-3.24
		c1.72-0.43,3.46-0.76,5.24-0.8c0.86-0.02,1.73,0.07,2.6,0.11c-0.03,0.29-0.25,0.29-0.39,0.36c-1.65,0.75-3.3,1.49-4.95,2.24
		c-0.66,0.3-1.07,1.31-0.77,1.95c0.15,0.32,0.37,0.09,0.54,0.01c1.61-0.73,3.22-1.48,4.83-2.22c1.18-0.55,2.37-1.08,3.55-1.64
		C56.03,2,56.38,1.98,56.78,2.1c1.42,0.43,2.62,1.12,3.11,2.64C59.89,5.32,59.89,5.91,59.89,6.49z"/>
	<path d="M48.25,27.9c-0.08,1.78-0.88,3.26-2.56,4.18c-2.05,1.13-2.58,1.07-4.07-0.69c-2.1-2.48-4.29-4.88-6.44-7.32
		c-0.09-0.1-0.18-0.2-0.27-0.31c-0.62-0.78-0.48-1.35,0.48-1.69c2.36-0.85,4.73-1.67,7.1-2.5c1.1-0.39,2.2-0.79,3.3-1.16
		c0.93-0.32,1.4,0.01,1.51,0.99c0.29,2.55,0.6,5.09,0.9,7.64C48.23,27.28,48.23,27.53,48.25,27.9z"/>
</g>
</svg>
