<?xml version="1.0" encoding="utf-8"?>
<!-- Generator: Adobe Illustrator 23.0.2, SVG Export Plug-In . SVG Version: 6.00 Build 0)  -->
<svg version="1.1" id="圖層_1" xmlns="http://www.w3.org/2000/svg" xmlns:xlink="http://www.w3.org/1999/xlink" x="0px" y="0px"
	 viewBox="0 0 39.18 48.82" style="enable-background:new 0 0 39.18 48.82;" xml:space="preserve">
<g>
	<path d="M38.82,16.74C37.37,8.61,30.86,1.38,21.18,0.63c-3.48-0.27-6.83,0.28-9.98,1.84C4.03,6-1.03,13.77,0.18,22.63
		c0.66,4.86,2.78,8.96,6.46,12.21c4.51,4,8.75,8.25,12.5,12.97c0.09,0.12,0.26,0.21,0.2,0.45l0.49-0.07
		c0.08-0.11,0.14-0.23,0.22-0.33c3.7-4.63,7.8-8.87,12.27-12.78C37.9,30.2,40.12,24.06,38.82,16.74z M29.66,20.27
		c-0.01,5.72-4.4,10.03-10.2,10c-5.54-0.02-10.04-4.73-9.93-10.12C9.44,14.79,13.92,9.99,19.6,10.08
		C25.73,10.18,29.67,14.64,29.66,20.27z" fill="#ff6501"/>
</g>
</svg>
