<?xml version="1.0" encoding="utf-8"?>
<!-- Generator: Adobe Illustrator 16.0.0, SVG Export Plug-In . SVG Version: 6.00 Build 0)  -->
<!DOCTYPE svg PUBLIC "-//W3C//DTD SVG 1.1//EN" "http://www.w3.org/Graphics/SVG/1.1/DTD/svg11.dtd">
<svg version="1.1" id="圖層_1" xmlns="http://www.w3.org/2000/svg" xmlns:xlink="http://www.w3.org/1999/xlink" x="0px" y="0px"
	 width="69.083px" height="70px" viewBox="0 0 69.083 70" enable-background="new 0 0 69.083 70" xml:space="preserve">
<g>
	<rect x="9.452" y="36.125" fill="#79B118" width="13.231" height="13.231"/>
	<rect x="28.318" y="36.125" fill="#79B118" width="13.23" height="13.231"/>
	<rect x="47.185" y="36.125" fill="#79B118" width="13.23" height="13.231"/>
	<path fill="#79B118" d="M60.52,7.04h-5.438v-2c0-2.75-2.25-5-5-5h-1c-2.75,0-5,2.25-5,5v2h-20v-2c0-2.75-2.25-5-5-5h-1
		c-2.75,0-5,2.25-5,5v2H8.645c-4.729,0-8.563,3.833-8.563,8.562v45.876c0,4.729,3.834,8.562,8.563,8.562H60.52
		c4.729,0,8.563-3.833,8.563-8.562V15.602C69.083,10.873,65.248,7.04,60.52,7.04z M65.081,61.479c0,2.515-2.046,4.562-4.562,4.562
		H8.645c-2.517,0-4.563-2.047-4.563-4.562V22.04h14.001h1h30h1h14.999V61.479z"/>
</g>
</svg>
