<?xml version="1.0" encoding="utf-8"?>
<!-- Generator: Adobe Illustrator 16.0.0, SVG Export Plug-In . SVG Version: 6.00 Build 0)  -->
<!DOCTYPE svg PUBLIC "-//W3C//DTD SVG 1.1//EN" "http://www.w3.org/Graphics/SVG/1.1/DTD/svg11.dtd">
<svg version="1.1" id="圖層_2" xmlns="http://www.w3.org/2000/svg" xmlns:xlink="http://www.w3.org/1999/xlink" x="0px" y="0px"
	 width="20px" height="20px" viewBox="470 270 20 20" enable-background="new 470 270 20 20" xml:space="preserve">
<path fill="#488176" d="M490.097,279.95c0-0.103,0-0.103,0-0.103l0,0l0,0c0,0,0-0.101-0.104-0.101c0,0,0,0-0.101,0l0,0l-4.973-2.13
	c-0.101,0-0.203,0-0.304,0l-3.351,1.421l-0.1-0.103l1.42-3.348c0-0.103,0-0.204,0-0.304l-2.13-4.972l0,0c0,0,0-0.103-0.103-0.103
	c0,0,0,0-0.102,0c0,0,0,0-0.1,0l0,0h-0.104l0,0l0,0h-0.101l0,0c0,0,0,0-0.101,0c0,0,0,0-0.104,0c0,0,0,0.103-0.1,0.103l0,0
	l-2.133,4.972c0,0.101,0,0.201,0,0.304l1.421,3.348l-0.101,0.103l-3.348-1.421c-0.103,0-0.204,0-0.304,0l-4.975,2.13
	c0,0,0,0-0.101,0h-0.101c0,0,0,0.101-0.103,0.101l0,0l0,0v0.103c0,0.101,0,0.101,0,0.101l0,0l0,0c0,0,0,0.101,0.103,0.101
	c0,0,0,0,0.101,0c0,0,0,0,0.101,0l4.975,2.133h0.101c0.101,0,0.101,0,0.101,0l3.35-1.421l0.101,0.101l-1.421,3.35
	c0,0.101,0,0.201,0,0.305l2.132,4.972c0,0,0,0.102,0.102,0.102l0,0c0,0,0.1,0,0.1,0.103l0,0l0,0h0.104h0.101l0,0l0,0
	c0,0,0.101,0,0.101-0.103l0,0l0.104-0.102l2.13-4.972c0-0.104,0-0.204,0-0.305l-1.421-3.35l0.101-0.101l3.35,1.421h0.101h0.104
	l4.972-2.133l0,0c0,0,0.101,0,0.101-0.101l0,0l0.102-0.101l0,0C490.097,280.051,490.097,279.95,490.097,279.95z M484.718,278.225
	l3.046,1.318h-6.089L484.718,278.225z M480.354,278.326v-6.089l1.32,3.045L480.354,278.326z M479.645,272.136v6.089l-1.321-3.045
	L479.645,272.136z M475.281,278.225l3.043,1.318h-6.089L475.281,278.225z M475.281,281.573l-3.045-1.318h6.089L475.281,281.573z
	 M479.645,281.573v6.089l-1.321-3.043L479.645,281.573z M480.354,287.661v-6.089l1.32,3.046L480.354,287.661z M484.718,281.573
	l-3.043-1.318h6.089L484.718,281.573z"/>
</svg>
