<?xml version="1.0" encoding="utf-8"?>
<!-- Generator: Adobe Illustrator 16.0.0, SVG Export Plug-In . SVG Version: 6.00 Build 0)  -->
<!DOCTYPE svg PUBLIC "-//W3C//DTD SVG 1.1//EN" "http://www.w3.org/Graphics/SVG/1.1/DTD/svg11.dtd">
<svg version="1.1" id="圖層_2" xmlns="http://www.w3.org/2000/svg" xmlns:xlink="http://www.w3.org/1999/xlink" x="0px" y="0px"
	 width="30px" height="29.6px" viewBox="0.026 -0.993 30 29.6" enable-background="new 0.026 -0.993 30 29.6" xml:space="preserve">
<path fill="#488176" d="M29.993,13.781c0-0.106,0-0.106,0-0.209l0,0l0,0c0,0,0-0.103-0.104-0.103c0,0-0.104,0-0.104-0.106
	c0,0,0,0-0.106,0l-2.615-1.144c-0.523-1.566-1.99-2.917-4.288-3.85l-0.104-0.104c-0.523-0.207-0.94-0.416-1.255-0.728
	c-0.315-0.313-0.526-0.834-0.736-1.25l-0.104-0.106c-0.941-2.289-2.302-3.64-3.868-4.265l-1.151-2.602l0,0c0,0,0-0.104-0.103-0.104
	c0,0-0.104,0-0.104-0.104c0,0,0,0-0.105,0l0,0c0,0-0.104,0-0.209,0l0,0l0,0c-0.105,0-0.105,0-0.21,0l0,0c0,0,0,0-0.103,0
	c0,0-0.109,0-0.109,0.104L14.51-0.685l0,0l-1.15,2.602c-1.568,0.521-2.93,1.979-3.868,4.265L9.388,6.287
	c-0.21,0.519-0.418,0.937-0.734,1.25C8.341,7.849,7.817,8.058,7.397,8.265L7.294,8.369c-2.299,0.937-3.658,2.285-4.286,3.85
	L0.39,13.363c0,0,0,0-0.104,0c0,0-0.106,0-0.106,0.106l-0.104,0.103l0,0l0,0c0,0.103,0,0.103,0,0.209c0,0.103,0,0.103,0,0.207l0,0
	l0,0c0,0,0,0.104,0.104,0.104c0,0,0.106,0,0.106,0.104c0,0,0,0,0.104,0l2.618,1.146c0.521,1.559,1.986,2.915,4.286,3.85l0.104,0.103
	c0.523,0.211,0.943,0.416,1.257,0.729c0.316,0.312,0.524,0.83,0.734,1.247l0.104,0.106c0.94,2.289,2.305,3.64,3.868,4.269
	l1.15,2.596c0,0.106,0.104,0.106,0.104,0.106l0,0l0.109,0.106l0,0l0,0c0.103,0,0.103,0,0.207,0c0.105,0,0.105,0,0.21,0l0,0l0,0
	c0,0,0.104,0,0.104-0.106l0,0l0.105-0.106l1.148-2.596c1.573-0.524,2.933-1.983,3.868-4.269l0.106-0.106
	c0.207-0.518,0.417-0.936,0.731-1.247c0.316-0.313,0.839-0.519,1.257-0.729l0.106-0.103c2.3-0.94,3.658-2.295,4.285-3.85
	l2.618-1.146l0,0c0,0,0.104,0,0.104-0.104l0,0l0.104-0.104l0,0C29.993,13.883,29.993,13.781,29.993,13.781z M26.332,13.26h-8.995
	v-0.104l4.812-1.979l4.078,1.77C26.332,13.051,26.332,13.156,26.332,13.26z M15.767,11.594L15.767,11.594l-0.103-8.95
	c0.103,0,0.207,0,0.313,0.105l1.781,4.057L15.767,11.594z M14.719,2.749v8.949h-0.104l-1.988-4.784l1.778-4.06
	C14.51,2.749,14.614,2.749,14.719,2.749z M13.049,13.156C13.049,13.26,13.049,13.26,13.049,13.156L4.053,13.26
	c0-0.104,0-0.209,0.104-0.313l4.08-1.77L13.049,13.156z M4.053,14.197h8.995v0.103L8.24,16.277l-4.081-1.769
	C4.157,14.508,4.053,14.406,4.053,14.197z M14.614,15.863C14.614,15.863,14.719,15.863,14.614,15.863l0.104,8.951
	c-0.104,0-0.208,0-0.314-0.104l-1.778-4.057L14.614,15.863z M15.665,24.81v-8.947h0.103l1.988,4.784l-1.778,4.057
	C15.977,24.81,15.767,24.81,15.665,24.81z M17.337,14.299L17.337,14.299l8.998-0.103c0,0.103,0,0.209-0.104,0.312l-4.078,1.769
	L17.337,14.299z M22.462,9.306c1.57,0.625,2.618,1.459,3.243,2.29l-3.345-1.354c-0.104,0-0.21,0-0.417,0l-4.29,1.771l3.45-3.436
	c0.42,0.312,0.84,0.418,1.257,0.625L22.462,9.306z M19.743,6.601v0.103c0.21,0.416,0.313,0.834,0.627,1.248l-3.448,3.435l1.78-4.267
	c0-0.104,0-0.207,0-0.416l-1.363-3.33C18.277,3.997,19.114,5.037,19.743,6.601z M10.747,6.601c0.627-1.565,1.467-2.608,2.304-3.229
	l-1.366,3.33c0,0.103,0,0.209,0,0.414l1.781,4.267l-3.448-3.433c0.313-0.416,0.418-0.834,0.628-1.248L10.747,6.601z M8.025,9.306
	l0.103-0.106c0.423-0.205,0.84-0.312,1.261-0.623l3.447,3.432l-4.285-1.77c-0.106,0-0.21,0-0.423,0L4.784,11.59
	C5.412,10.655,6.458,9.931,8.025,9.306z M8.025,18.257c-1.569-0.625-2.618-1.463-3.244-2.294l3.344,1.357c0.106,0,0.106,0,0.21,0
	c0.104,0,0.104,0,0.212,0l4.286-1.773l-3.45,3.434c-0.418-0.312-0.836-0.418-1.258-0.623L8.025,18.257z M10.747,20.96l-0.104-0.101
	c-0.21-0.418-0.313-0.836-0.627-1.254l3.448-3.433l-1.779,4.269c0,0.101,0,0.205,0,0.418l1.361,3.325
	C12.108,23.562,11.374,22.418,10.747,20.96z M19.743,20.96c-0.629,1.559-1.466,2.602-2.303,3.225l1.363-3.325
	c0-0.106,0-0.213,0-0.418l-1.78-4.267l3.45,3.435c-0.313,0.418-0.42,0.832-0.628,1.25L19.743,20.96z M22.462,18.257l-0.104,0.101
	c-0.418,0.211-0.837,0.315-1.257,0.629l-3.451-3.434l4.29,1.771c0.104,0,0.104,0,0.208,0c0.105,0,0.105,0,0.21,0l3.344-1.357
	C25.078,16.798,23.927,17.632,22.462,18.257z"/>
</svg>
