<?xml version="1.0" encoding="iso-8859-1"?>
<!-- Generator: Adobe Illustrator 16.0.0, SVG Export Plug-In . SVG Version: 6.00 Build 0)  -->
<!DOCTYPE svg PUBLIC "-//W3C//DTD SVG 1.1//EN" "http://www.w3.org/Graphics/SVG/1.1/DTD/svg11.dtd">
<svg version="1.1" xmlns="http://www.w3.org/2000/svg" xmlns:xlink="http://www.w3.org/1999/xlink" x="0px" y="0px" width="250px"
	 height="76px" viewBox="0 0 250 76" style="enable-background:new 0 0 250 76;" xml:space="preserve">
<g id="&#x80CC;&#x666F;_xA0_&#x5F71;&#x50CF;_1_" style="display:none;">
	
		<image style="display:inline;overflow:visible;" width="191" height="58" id="&#x80CC;&#x666F;_xA0_&#x5F71;&#x50CF;" xlink:href="D9955D6E.jpg"  transform="matrix(1.3079 0 0 1.3079 0.1987 -92.7261)">
	</image>
	
		<image style="display:inline;overflow:visible;" width="191" height="58" id="&#x80CC;&#x666F;_xA0_&#x5F71;&#x50CF;_2_" xlink:href="D9955D72.jpg"  transform="matrix(1.3079 0 0 1.3079 0.1987 -184.0601)">
	</image>
	
		<image style="display:inline;overflow:visible;" width="191" height="58" id="&#x80CC;&#x666F;_xA0_&#x5F71;&#x50CF;_3_" xlink:href="D9955D75.jpg"  transform="matrix(1.3079 0 0 1.3079 0.1987 -0.0596)">
	</image>
	
		<image style="display:inline;overflow:visible;" width="191" height="58" id="&#x80CC;&#x666F;_xA0_&#x5F71;&#x50CF;_4_" xlink:href="D9955D76.jpg"  transform="matrix(1.3079 0 0 1.3079 0.1987 95.9404)">
	</image>
	
		<image style="display:inline;overflow:visible;" width="191" height="58" id="&#x80CC;&#x666F;_xA0_&#x5F71;&#x50CF;_5_" xlink:href="D9955D74.jpg"  transform="matrix(1.3079 0 0 1.3079 0.1987 191.9404)">
	</image>
	
		<image style="display:inline;overflow:visible;" width="191" height="58" id="&#x80CC;&#x666F;_xA0_&#x5F71;&#x50CF;_6_" xlink:href="D9955D73.jpg"  transform="matrix(1.3079 0 0 1.3079 0.1987 288.6074)">
	</image>
</g>
<g id="&#x65C5;&#x96AA;_1_">
	<g id="&#x7FA4;&#x7D44;_2_1_">
	</g>
	<g id="&#x7F8E;&#x5546;&#x5B89;&#x9054;&#x65C5;&#x96AA;">
	</g>
</g>
<g id="&#x5F71;&#x50CF;_xA0_23_1_">
	<g id="&#x611B;_&#x5FC3;_&#x6350;_&#x8D08;">
	</g>
</g>
<g id="&#x5F71;&#x50CF;_xA0_33_1_">
	<g id="&#x65C5;_&#x904A;_&#x8B1B;_&#x5EA7;">
	</g>
</g>
<g id="&#x5F71;&#x50CF;_xA0_43_1_">
	<g id="&#x5F71;&#x50CF;_xA0_36_xA0_&#x5F71;&#x50CF;_1_" style="display:none;">
		
			<image style="display:inline;overflow:visible;" width="52" height="52" id="&#x5F71;&#x50CF;_xA0_36_xA0_&#x5F71;&#x50CF;" xlink:href="D9955D72.png"  transform="matrix(1 0 0 1 34.5 -80.667)">
		</image>
	</g>
	<g id="&#x5BEB;&#x597D;&#x6587;A&#x597D;&#x5EB7;">
		<g id="&#x6A62;&#x5713;_1_&#x62F7;&#x8C9D;_6_2_">
			<g>
				<ellipse style="fill:#F8B551;" cx="40.65" cy="37.808" rx="33.354" ry="33.581"/>
			</g>
		</g>
		<g>
			<path style="fill:#333333;" d="M98.698,34.999v1.1h-4.799v2.1h10.647v-2.1h-4.574v-1.1h4.574v-2.324h-4.574V31.55h7.148v7.772
				h-8.573c-0.675,0.775-1.2,1.175-2.024,1.8h13.722c-0.55,7.849-2.274,7.948-4.649,7.948h-2.699l-0.6-1.425
				c0.65,0.15,1.425,0.325,2.475,0.325c1.649,0,2.599,0,2.75-5.749H94.875c-3,1.85-5.374,2.649-6.449,2.999l-0.7-0.874
				c2.699-1.1,5.349-2.824,6.999-5.024H91.4v-7.598l1.649,0.3c2.375-0.35,3.599-0.75,4.899-1.3l1.274,1.825
				c0.025,0.049,0.05,0.074,0.05,0.149c0,0.101-0.15,0.101-0.2,0.101c-0.15,0-0.425-0.051-0.575-0.076
				c-1.325,0.176-2.6,0.301-4.599,0.326v1.949H98.698z M110.246,28.5v4.624h-2.574v-3.523H90.851v3.523h-2.524V28.5h9.572v-1.399
				c0-0.55-0.025-0.775-0.075-1.199l2.75,0.125c0.075,0,0.175,0.024,0.175,0.174c0,0.076-0.05,0.226-0.175,0.4V28.5H110.246z
				 M90.451,48.295c1.399-1.649,2.199-3.349,2.799-4.898l1.35,0.35c-0.175,1.45-0.7,3.925-1.2,5.399L90.451,48.295z M97.124,43.621
				c0.774,1.6,1.35,3.524,1.549,4.3l-2.375,0.749c0.025-0.624,0.1-2.599-0.375-4.823L97.124,43.621z M100.573,43.172
				c0.975,1.475,1.674,3.074,1.974,3.724l-2.174,0.825c-0.15-1.05-0.45-2.574-1.075-4.199L100.573,43.172z M103.597,42.622
				c1.35,1.249,1.85,1.774,2.649,2.899l-1.975,1.199c-0.375-1.199-0.975-2.475-1.799-3.624L103.597,42.622z"/>
			<path style="fill:#333333;" d="M122.524,30.95c0,1.424-0.025,4.623-0.95,8.247c-0.3,1.175-0.7,2.35-1.075,3.1
				c1.775,1,2.725,1.899,3.35,2.499l-1.775,2.024c-0.375-0.649-0.9-1.499-2.549-2.749c-1.975,2.999-4.299,4.399-5.673,5.148
				l-0.975-0.874c1.5-0.95,3.549-2.449,5.049-5.324c-2.074-1.199-3.924-1.824-5.224-2.225c0.85-1.999,1.799-4.823,2.674-8.723
				h-2.599V30.95h2.824c0.425-2.225,0.675-3.774,0.65-5l2.674,0.301c0.125,0.025,0.25,0.074,0.25,0.199
				c0,0.15-0.1,0.275-0.275,0.551c-0.125,0.625-0.649,3.398-0.774,3.949H122.524z M117.875,32.074c-0.9,4.05-1.8,6.623-2.325,8.099
				c0.75,0.249,1.55,0.55,3.074,1.199c0.975-2.949,1.275-5.873,1.325-9.298H117.875z M122.549,38.298v-1.125h5.849v-4.799
				l1.524,0.15c0.225-0.301,1.75-2.449,2.449-4.174h-9.297v-1.125h12.747v1.199c-0.449,0.65-1.55,2.175-4.849,5.574v3.174h4.874
				v1.125h-4.874v8.098c0,2.075-0.25,2.7-2.949,2.7h-3.574l-0.4-1.425c0.95,0.175,2.025,0.274,3,0.274
				c1.274,0,1.35-0.325,1.35-1.524v-8.123H122.549z"/>
			<path style="fill:#333333;" d="M160.121,49.17c-5.799-1.1-8.898-2.874-10.947-4.323c-1.825,1.225-5.799,3.474-10.647,4.323
				l-0.75-1.05c1.6-0.425,6.323-1.624,9.922-4.499c-3.374-3.174-5.123-6.848-5.823-12.646h-4.099v-1.124h10.072v-2.275
				c0-0.824-0.025-1.074-0.125-1.674l2.874,0.1c0.125,0,0.3,0.05,0.3,0.25c0,0.175-0.1,0.375-0.274,0.675v2.925h10.147v1.124h-4.224
				c-0.375,3.149-1.2,8.523-5.874,12.672c2.925,2.324,6.499,3.6,10.147,4.324L160.121,49.17z M144.649,30.975
				c0.15,1.825,0.575,7.123,4.524,11.297c0.999-1.05,4.023-4.249,4.573-11.297H144.649z"/>
			<path style="fill:#333333;" d="M162.477,48.524l9.438-21.626h3.503l10.059,21.626h-3.705l-2.866-6.55h-10.276l-2.698,6.55
				H162.477z M169.567,39.644h8.331l-2.564-5.988c-0.783-1.82-1.364-3.314-1.744-4.485c-0.313,1.387-0.754,2.764-1.324,4.131
				L169.567,39.644z"/>
			<path style="fill:#333333;" d="M195.556,30.95c0,1.424-0.024,4.623-0.949,8.247c-0.3,1.175-0.7,2.35-1.075,3.1
				c1.774,1,2.725,1.899,3.35,2.499l-1.774,2.024c-0.375-0.649-0.9-1.499-2.55-2.749c-1.975,2.999-4.299,4.399-5.674,5.148
				l-0.975-0.874c1.5-0.95,3.549-2.449,5.049-5.324c-2.074-1.199-3.924-1.824-5.224-2.225c0.85-1.999,1.8-4.823,2.675-8.723h-2.6
				V30.95h2.824c0.425-2.225,0.675-3.774,0.649-5l2.675,0.301c0.125,0.025,0.25,0.074,0.25,0.199c0,0.15-0.101,0.275-0.275,0.551
				c-0.125,0.625-0.649,3.398-0.774,3.949H195.556z M190.907,32.074c-0.899,4.05-1.8,6.623-2.324,8.099
				c0.749,0.249,1.549,0.55,3.074,1.199c0.975-2.949,1.274-5.873,1.324-9.298H190.907z M195.581,38.298v-1.125h5.849v-4.799
				l1.524,0.15c0.225-0.301,1.75-2.449,2.449-4.174h-9.298v-1.125h12.747v1.199c-0.45,0.65-1.55,2.175-4.849,5.574v3.174h4.874
				v1.125h-4.874v8.098c0,2.075-0.25,2.7-2.949,2.7h-3.574l-0.399-1.425c0.949,0.175,2.024,0.274,2.999,0.274
				c1.274,0,1.35-0.325,1.35-1.524v-8.123H195.581z"/>
			<path style="fill:#333333;" d="M233.703,28.275v1.124h-18.621v8.998c0,4.175-1.3,7.773-3.824,10.397l-0.899-0.699
				c1.824-2.875,2.175-6.599,2.175-9.298V28.275h8.723v-1.175c0-0.3,0-0.5-0.1-1.15l2.799,0.051c0.125,0,0.25,0.1,0.25,0.225
				c0,0.15-0.075,0.275-0.25,0.675v1.375H233.703z M225.205,46.945c0,1.775-0.825,2.125-2.5,2.125h-2.849l-0.45-1.425
				c0.75,0.225,1.649,0.35,2.449,0.35c0.575,0,0.775-0.125,0.775-0.874v-2.649c-1.775,1.149-5.649,2.999-6.574,3.449
				c-0.1,0.175-0.3,0.449-0.475,0.449c-0.075,0-0.225-0.1-0.274-0.199l-0.9-1.875c1.8-0.2,5.999-1.824,8.224-2.924v-3.3h-6.174
				v-1.125h6.174v-2.549h-7.023v-1.125h7.023V32.8h-6.174v-1.125h6.174v-1.15c0-0.35-0.025-0.524-0.075-0.85l2.499,0.075
				c0.15,0,0.35,0.075,0.35,0.2c0,0.1-0.175,0.475-0.199,0.55v1.175h5.724v3.599h2.949v1.125h-2.949v3.674h-5.199
				c0.325,1.1,1.274,2.5,1.975,3.35c1.35-0.85,2.574-1.875,3.149-2.899l1.925,1.399c0.05,0.025,0.1,0.075,0.1,0.15
				c0,0.25-0.425,0.35-0.6,0.399c-1.125,0.725-1.225,0.775-3.574,2.024c1.149,1.1,2.574,2.149,5.249,3.225l-0.925,1.1
				c-1.8-0.725-4.749-1.949-7.823-5.124V46.945z M218.007,40.272c0.875,0.725,1.624,1.399,2.574,2.449l-2.024,1.399
				c-0.125-0.475-0.35-1.424-1.425-3.124L218.007,40.272z M225.205,35.273h3.024V32.8h-3.024V35.273z M225.205,38.947h3.024v-2.549
				h-3.024V38.947z"/>
		</g>
		<g>
			<path style="fill-rule:evenodd;clip-rule:evenodd;fill:#EB6100;stroke:#FFFFFF;stroke-miterlimit:10;" d="M40.684,32.495
				l8.075,3.154l-7.835,20.324c0,0-4.61,5.994-6.618,5.208c-2.028-0.792-1.457-8.364-1.457-8.364L40.684,32.495z"/>
			<path style="fill-rule:evenodd;clip-rule:evenodd;fill:#EB6100;stroke:#FFFFFF;stroke-miterlimit:10;" d="M50.299,32.495
				l4.7-12.193c0.866-2.245-0.24-4.771-2.469-5.644c-2.229-0.87-4.739,0.243-5.604,2.487l-4.701,12.193L50.299,32.495z"/>
			<path style="fill-rule:evenodd;clip-rule:evenodd;fill:#EB6100;stroke:#FFFFFF;stroke-miterlimit:10;" d="M42.512,21.836
				l-4.884,12.96c-0.299,0.795-1.182,1.195-1.972,0.894c-0.789-0.302-1.188-1.19-0.888-1.985l4.883-12.961
				c0.3-0.795,1.184-1.195,1.975-0.894C42.416,20.151,42.813,21.04,42.512,21.836z"/>
		</g>
	</g>
</g>
<g id="&#x5F71;&#x50CF;_xA0_63_1_">
	<g id="&#x5F71;&#x50CF;_xA0_46_xA0_&#x5F71;&#x50CF;_1_" style="display:none;">
		
			<image style="display:inline;overflow:visible;" width="52" height="52" id="&#x5F71;&#x50CF;_xA0_46_xA0_&#x5F71;&#x50CF;" xlink:href="D9955D7E.png"  transform="matrix(1 0 0 1 34.5 -80.667)">
		</image>
	</g>
	<g id="&#x7FA4;&#x7D44;_5_1_">
	</g>
	<g id="&#x4FE1;&#x7528;&#x5361;&#x512A;&#x60E0;">
	</g>
</g>
<g id="&#x5F71;&#x50CF;_xA0_71_1_">
	<g id="&#x5178;_&#x85CF;_&#x65C5;_&#x904A;">
	</g>
</g>
</svg>
