<?xml version="1.0" encoding="utf-8"?>
<!-- Generator: Adobe Illustrator 16.0.0, SVG Export Plug-In . SVG Version: 6.00 Build 0)  -->
<!DOCTYPE svg PUBLIC "-//W3C//DTD SVG 1.1//EN" "http://www.w3.org/Graphics/SVG/1.1/DTD/svg11.dtd">
<svg version="1.1" id="圖層_5" xmlns="http://www.w3.org/2000/svg" xmlns:xlink="http://www.w3.org/1999/xlink" x="0px" y="0px"
	 width="33px" height="33px" viewBox="657.345 171.791 33 33" enable-background="new 657.345 171.791 33 33" xml:space="preserve">
<g>
	<g>
		<path d="M673.845,172.842c8.519,0,15.449,6.93,15.449,15.448c0,8.519-6.931,15.449-15.449,15.449s-15.449-6.931-15.449-15.449
			C658.396,179.772,665.326,172.842,673.845,172.842 M673.845,171.791c-9.113,0-16.5,7.387-16.5,16.5c0,9.112,7.387,16.5,16.5,16.5
			c9.112,0,16.5-7.388,16.5-16.5C690.345,179.177,682.957,171.791,673.845,171.791L673.845,171.791z"/>
	</g>
	<path fill-rule="evenodd" clip-rule="evenodd" d="M671.259,193.27c0-1.544-0.006-3.088,0.006-4.632
		c0.002-0.26-0.071-0.342-0.332-0.331c-0.48,0.02-0.964-0.002-1.445,0.009c-0.195,0.005-0.267-0.049-0.265-0.256
		c0.01-0.963,0.009-1.927,0.001-2.891c-0.002-0.185,0.054-0.246,0.241-0.242c0.493,0.012,0.986-0.014,1.479,0.011
		c0.284,0.014,0.344-0.087,0.338-0.352c-0.018-0.733-0.018-1.468-0.001-2.201c0.02-0.896,0.26-1.732,0.793-2.46
		c0.675-0.922,1.635-1.344,2.742-1.393c1.138-0.051,2.277-0.022,3.416-0.035c0.158-0.002,0.206,0.055,0.205,0.209
		c-0.005,0.975-0.006,1.949,0.001,2.924c0.001,0.173-0.055,0.227-0.226,0.224c-0.547-0.009-1.095-0.004-1.643-0.003
		c-0.729,0.002-1.165,0.377-1.211,1.099c-0.036,0.579-0.01,1.16-0.022,1.741c-0.005,0.207,0.117,0.192,0.254,0.192
		c0.833-0.001,1.665,0.008,2.497-0.006c0.244-0.004,0.325,0.052,0.297,0.309c-0.104,0.968-0.194,1.938-0.277,2.909
		c-0.02,0.219-0.119,0.261-0.316,0.257c-0.656-0.01-1.313-0.007-1.97-0.003c-0.473,0.003-0.427-0.069-0.427,0.412
		c-0.002,3.022-0.006,6.045,0.007,9.067c0.001,0.319-0.08,0.398-0.396,0.393c-1.127-0.021-2.256-0.021-3.383,0.001
		c-0.318,0.006-0.37-0.102-0.368-0.385C671.266,196.315,671.259,194.792,671.259,193.27z"/>
</g>
</svg>
