<?xml version="1.0" encoding="utf-8"?>
<!-- Generator: Adobe Illustrator 16.0.0, SVG Export Plug-In . SVG Version: 6.00 Build 0)  -->
<!DOCTYPE svg PUBLIC "-//W3C//DTD SVG 1.1//EN" "http://www.w3.org/Graphics/SVG/1.1/DTD/svg11.dtd">
<svg version="1.1" id="圖層_1" xmlns="http://www.w3.org/2000/svg" xmlns:xlink="http://www.w3.org/1999/xlink" x="0px" y="0px"
	 width="44.971px" height="50px" viewBox="0 0 44.971 50" enable-background="new 0 0 44.971 50" xml:space="preserve">
<g>
	<g>
		<path fill="#E5E5E5" d="M34.847,23.282L15.257,3.693C14.804,3.24,14.199,2.99,13.554,2.99s-1.25,0.25-1.703,0.703l-1.443,1.442
			c-0.939,0.939-0.939,2.467,0,3.406l16.45,16.45L10.39,41.459c-0.453,0.453-0.703,1.058-0.703,1.702c0,0.646,0.25,1.25,0.703,1.704
			l1.443,1.441c0.453,0.454,1.058,0.703,1.702,0.703c0.646,0,1.25-0.249,1.703-0.703l19.608-19.607
			c0.454-0.454,0.703-1.062,0.702-1.707C35.55,24.344,35.301,23.737,34.847,23.282z"/>
	</g>
</g>
</svg>
