<?xml version="1.0" encoding="utf-8"?>
<!-- Generator: Adobe Illustrator 16.0.0, SVG Export Plug-In . SVG Version: 6.00 Build 0)  -->
<!DOCTYPE svg PUBLIC "-//W3C//DTD SVG 1.1//EN" "http://www.w3.org/Graphics/SVG/1.1/DTD/svg11.dtd">
<svg version="1.1" id="圖層_1" xmlns="http://www.w3.org/2000/svg" xmlns:xlink="http://www.w3.org/1999/xlink" x="0px" y="0px"
	 width="50px" height="50px" viewBox="0 0 50 50" enable-background="new 0 0 50 50" xml:space="preserve">
<path fill="#3C5B99" d="M50,24.999C50,38.805,38.804,50,25,50C11.192,50,0,38.805,0,24.999C0,11.192,11.192,0,25,0
	C38.804,0,50,11.192,50,24.999z"/>
<path fill="#FFFFFF" d="M34.36,16.013c-0.408,0-0.738,0.33-0.738,0.736v1.479c-0.279,0.04-0.521,0.193-0.672,0.415h-1.432v-0.209
	h-3.869c-0.387,0-0.701-0.349-0.701-0.737c0-0.388,0.314-0.736,0.701-0.736h3.869v-1.894h-3.869c-0.387,0-0.701-0.349-0.701-0.736
	s0.314-0.737,0.701-0.737h3.699c-0.156-3.156-2.92-6.013-6.306-6.013c-3.386,0-6.149,2.857-6.308,6.013h3.702
	c0.387,0,0.701,0.35,0.701,0.737s-0.314,0.736-0.701,0.736h-3.753v1.894h3.753c0.387,0,0.701,0.348,0.701,0.736
	c0,0.388-0.314,0.737-0.701,0.737h-3.753v0.209h-1.442c-0.178-0.258-0.474-0.427-0.81-0.427c-0.022,0-0.043,0.004-0.062,0.005
	v-1.472c0-0.406-0.331-0.736-0.737-0.736c-0.407,0-0.736,0.33-0.736,0.736v8.338c0,2.691,1.066,5.239,3.003,7.175
	c1.715,1.714,3.908,2.745,6.254,2.959v5.323c-3.26-0.309-6.391-2.338-7.78-1.11c-0.625,0.554,0,2.984,0,2.984h17.355
	c0,0,0.557-2.359,0-2.969c-1.281-1.403-4.508,0.729-7.891,1.085v-5.296c5.167-0.375,9.26-4.784,9.26-10.152v-8.338
	C35.099,16.343,34.767,16.013,34.36,16.013z M33.622,25.087c0,4.801-3.807,8.706-8.494,8.706h-0.051
	c-4.721,0-8.707-3.986-8.707-8.706v-4.914c0.019,0.001,0.04,0.005,0.062,0.005c0.359,0,0.67-0.194,0.842-0.484h1.41v0.422h3.753
	c0.387,0,0.701,0.349,0.701,0.736c0,0.387-0.314,0.736-0.701,0.736h-3.753v2.797c0,3.487,2.931,6.313,6.417,6.313
	c3.489,0,6.417-2.825,6.417-6.313v-2.797h-3.869c-0.387,0-0.701-0.35-0.701-0.736c0-0.388,0.314-0.736,0.701-0.736h3.869v-0.422h1.4
	c0.146,0.252,0.402,0.429,0.703,0.471V25.087z"/>
</svg>
