<!DOCTYPE svg PUBLIC "-//W3C//DTD SVG 20010904//EN" "http://www.w3.org/TR/2001/REC-SVG-20010904/DTD/svg10.dtd">
<svg version="1.0" xmlns="http://www.w3.org/2000/svg" width="22px" height="24px" viewBox="0 0 220 240" preserveAspectRatio="xMidYMid meet">
<g id="layer101" fill="#c3c3c3" stroke="none">
 <path d="M0 223 c0 -10 19 -37 42 -60 l42 -43 -42 -43 c-44 -45 -54 -77 -24 -77 21 0 122 99 122 121 0 20 -102 119 -123 119 -9 0 -17 -8 -17 -17z"/>
 <path d="M80 223 c0 -10 19 -37 42 -60 l42 -43 -42 -43 c-44 -45 -54 -77 -24 -77 21 0 122 99 122 121 0 20 -102 119 -123 119 -9 0 -17 -8 -17 -17z"/>
 </g>

</svg>