<?xml version="1.0" encoding="iso-8859-1"?>
<!-- Generator: Adobe Illustrator 16.0.0, SVG Export Plug-In . SVG Version: 6.00 Build 0)  -->
<!DOCTYPE svg PUBLIC "-//W3C//DTD SVG 1.1//EN" "http://www.w3.org/Graphics/SVG/1.1/DTD/svg11.dtd">
<svg version="1.1" xmlns="http://www.w3.org/2000/svg" xmlns:xlink="http://www.w3.org/1999/xlink" x="0px" y="0px" width="250px"
	 height="249.999px" viewBox="0 0 250 249.999" style="enable-background:new 0 0 250 249.999;" xml:space="preserve">
<g id="&#x80CC;&#x666F;_xA0_&#x5F71;&#x50CF;_1_" style="display:none;">
	
		<image style="display:inline;overflow:visible;" width="191" height="58" id="&#x80CC;&#x666F;_xA0_&#x5F71;&#x50CF;" xlink:href="ABAD4F7B.jpg"  transform="matrix(1.3079 0 0 1.3079 -297.6343 -188.7261)">
	</image>
	
		<image style="display:inline;overflow:visible;" width="191" height="58" id="&#x80CC;&#x666F;_xA0_&#x5F71;&#x50CF;_2_" xlink:href="ABAD4F79.jpg"  transform="matrix(1.3079 0 0 1.3079 -297.6343 -280.0601)">
	</image>
	
		<image style="display:inline;overflow:visible;" width="191" height="58" id="&#x80CC;&#x666F;_xA0_&#x5F71;&#x50CF;_3_" xlink:href="ABAD4F7F.jpg"  transform="matrix(1.3079 0 0 1.3079 -297.6343 -96.0596)">
	</image>
	
		<image style="display:inline;overflow:visible;" width="191" height="58" id="&#x80CC;&#x666F;_xA0_&#x5F71;&#x50CF;_4_" xlink:href="ABAD4F78.jpg"  transform="matrix(1.3079 0 0 1.3079 -297.6343 -0.0596)">
	</image>
	
		<image style="display:inline;overflow:visible;" width="191" height="58" id="&#x80CC;&#x666F;_xA0_&#x5F71;&#x50CF;_5_" xlink:href="ABAD4F76.jpg"  transform="matrix(1.3079 0 0 1.3079 -297.6343 95.9404)">
	</image>
	
		<image style="display:inline;overflow:visible;" width="191" height="58" id="&#x80CC;&#x666F;_xA0_&#x5F71;&#x50CF;_6_" xlink:href="ABAD4F77.jpg"  transform="matrix(1.3079 0 0 1.3079 -297.6343 192.6074)">
	</image>
</g>
<g id="&#x65C5;&#x96AA;_1_">
	<g id="&#x7FA4;&#x7D44;_2_1_">
	</g>
	<g id="&#x7F8E;&#x5546;&#x5B89;&#x9054;&#x65C5;&#x96AA;">
	</g>
</g>
<g id="&#x5F71;&#x50CF;_xA0_23_1_">
	<g id="&#x611B;_&#x5FC3;_&#x6350;_&#x8D08;">
	</g>
</g>
<g id="&#x5F71;&#x50CF;_xA0_33_1_">
	<g id="&#x65C5;_&#x904A;_&#x8B1B;_&#x5EA7;">
	</g>
</g>
<g id="&#x5F71;&#x50CF;_xA0_43_1_">
	<g id="&#x5F71;&#x50CF;_xA0_36_xA0_&#x5F71;&#x50CF;_1_" style="display:none;">
		
			<image style="display:inline;overflow:visible;" width="52" height="52" id="&#x5F71;&#x50CF;_xA0_36_xA0_&#x5F71;&#x50CF;" xlink:href="ABAD4F87.png"  transform="matrix(1 0 0 1 -263.333 -176.667)">
		</image>
	</g>
	<g id="&#x5BEB;&#x597D;&#x6587;A&#x597D;&#x5EB7;">
	</g>
</g>
<g id="&#x5F71;&#x50CF;_xA0_63_1_">
	<g id="&#x5F71;&#x50CF;_xA0_46_xA0_&#x5F71;&#x50CF;_1_" style="display:none;">
		
			<image style="display:inline;overflow:visible;" width="52" height="52" id="&#x5F71;&#x50CF;_xA0_46_xA0_&#x5F71;&#x50CF;" xlink:href="ABAD4F89.png"  transform="matrix(1 0 0 1 -263.333 -176.667)">
		</image>
	</g>
	<g id="&#x7FA4;&#x7D44;_5_1_">
	</g>
	<g id="&#x4FE1;&#x7528;&#x5361;&#x512A;&#x60E0;">
	</g>
</g>
<g id="&#x5F71;&#x50CF;_xA0_71_1_">
	<g id="&#x5178;_&#x85CF;_&#x65C5;_&#x904A;">
	</g>
	<g>
		<g id="&#x6A62;&#x5713;_1_&#x62F7;&#x8C9D;_7_3_">
			<path style="fill:#B3D465;" d="M125.296,1.555c-68.033,0-123.18,55.525-123.18,124.02c0,68.484,55.146,124.009,123.18,124.009
				c68.025,0,123.176-55.524,123.176-124.009C248.472,57.08,193.321,1.555,125.296,1.555z"/>
		</g>
		<g>
			<path style="fill:#638C0B;stroke:#FFFFFF;stroke-width:5;stroke-miterlimit:10;" d="M85.112,139.362
				c0,18.43,17.96,33.36,40.11,33.36c22.13,0,40.084-14.931,40.084-33.36v-35.701H85.112V139.362z"/>
			<g>
				<g>
					<polygon style="fill-rule:evenodd;clip-rule:evenodd;fill:#638C0B;" points="134.756,193.698 134.756,174.651 115.832,174.651 
						115.832,193.698 84.294,193.698 84.294,212.751 166.294,212.751 166.294,193.698 					"/>
				</g>
				<g>
					<polygon style="fill:none;stroke:#FFFFFF;stroke-width:5;stroke-miterlimit:10;" points="134.756,193.698 134.756,174.651 
						115.832,174.651 115.832,193.698 84.294,193.698 84.294,212.751 166.294,212.751 166.294,193.698 					"/>
				</g>
			</g>
			<path style="fill-rule:evenodd;clip-rule:evenodd;fill:#638C0B;stroke:#FFFFFF;stroke-width:5;stroke-miterlimit:10;" d="
				M125.299,34.879c15.674,0,28.388,12.795,28.388,28.577v69.861c0,15.786-12.714,28.578-28.388,28.578
				c-15.677,0-28.394-12.792-28.394-28.578V63.456C96.905,47.674,109.622,34.879,125.299,34.879z"/>
		</g>
	</g>
</g>
</svg>
