<?xml version="1.0" encoding="iso-8859-1"?>
<!-- Generator: Adobe Illustrator 16.0.0, SVG Export Plug-In . SVG Version: 6.00 Build 0)  -->
<!DOCTYPE svg PUBLIC "-//W3C//DTD SVG 1.1//EN" "http://www.w3.org/Graphics/SVG/1.1/DTD/svg11.dtd">
<svg version="1.1" xmlns="http://www.w3.org/2000/svg" xmlns:xlink="http://www.w3.org/1999/xlink" x="0px" y="0px" width="250px"
	 height="76px" viewBox="0 0 250 76" style="enable-background:new 0 0 250 76;" xml:space="preserve">
<g id="&#x80CC;&#x666F;_xA0_&#x5F71;&#x50CF;_1_" style="display:none;">
	
		<image style="display:inline;overflow:visible;" width="191" height="58" id="&#x80CC;&#x666F;_xA0_&#x5F71;&#x50CF;" xlink:href="4134D494.jpg"  transform="matrix(1.3079 0 0 1.3079 0.1987 -188.7261)">
	</image>
	
		<image style="display:inline;overflow:visible;" width="191" height="58" id="&#x80CC;&#x666F;_xA0_&#x5F71;&#x50CF;_2_" xlink:href="4134D495.jpg"  transform="matrix(1.3079 0 0 1.3079 0.1987 -280.0601)">
	</image>
	
		<image style="display:inline;overflow:visible;" width="191" height="58" id="&#x80CC;&#x666F;_xA0_&#x5F71;&#x50CF;_3_" xlink:href="4134D493.jpg"  transform="matrix(1.3079 0 0 1.3079 0.1987 -96.0596)">
	</image>
	
		<image style="display:inline;overflow:visible;" width="191" height="58" id="&#x80CC;&#x666F;_xA0_&#x5F71;&#x50CF;_4_" xlink:href="4134D49C.jpg"  transform="matrix(1.3079 0 0 1.3079 0.1987 -0.0596)">
	</image>
	
		<image style="display:inline;overflow:visible;" width="191" height="58" id="&#x80CC;&#x666F;_xA0_&#x5F71;&#x50CF;_5_" xlink:href="4134D49F.jpg"  transform="matrix(1.3079 0 0 1.3079 0.1987 95.9404)">
	</image>
	
		<image style="display:inline;overflow:visible;" width="191" height="58" id="&#x80CC;&#x666F;_xA0_&#x5F71;&#x50CF;_6_" xlink:href="4134D49D.jpg"  transform="matrix(1.3079 0 0 1.3079 0.1987 192.6074)">
	</image>
</g>
<g id="&#x65C5;&#x96AA;_1_">
	<g id="&#x7FA4;&#x7D44;_2_1_">
	</g>
	<g id="&#x7F8E;&#x5546;&#x5B89;&#x9054;&#x65C5;&#x96AA;">
	</g>
</g>
<g id="&#x5F71;&#x50CF;_xA0_23_1_">
	<g id="&#x611B;_&#x5FC3;_&#x6350;_&#x8D08;">
	</g>
</g>
<g id="&#x5F71;&#x50CF;_xA0_33_1_">
	<g id="&#x65C5;_&#x904A;_&#x8B1B;_&#x5EA7;">
		<g id="&#x6A62;&#x5713;_1_&#x62F7;&#x8C9D;_7_2_">
			<g>
				<ellipse style="fill:#B3D465;" cx="40.65" cy="37.808" rx="33.354" ry="33.581"/>
			</g>
		</g>
		<g>
			<path style="fill:#333333;" d="M92.575,31.454v3.653h4.7c-0.051,12.632-0.409,13.866-3.78,13.866h-2.222l-0.511-1.363
				c0.792,0.206,1.507,0.206,1.711,0.206c1.558,0,1.711-0.721,1.89-1.75c0.255-1.44,0.409-6.071,0.383-9.827h-2.197
				c-0.103,6.174-1.507,9.956-4.342,12.812l-0.997-0.823c2.35-3.164,2.835-6.097,2.835-12.631v-4.143h-2.35v-1.158h4.036v-3.318
				c0-0.283-0.051-1.158-0.077-1.44l2.631,0.077c0.102,0,0.204,0.077,0.204,0.205c0,0.155-0.127,0.412-0.204,0.566v3.91h3.653v1.158
				H92.575z M101.464,30.296c-1.686,2.754-2.989,4.117-3.551,4.709l-1.226-0.592c1.967-2.419,3.576-6.046,4.138-9.236l2.912,0.721
				c0.076,0.025,0.229,0.129,0.229,0.283c0,0.257-0.332,0.359-0.459,0.411c-0.715,1.44-1.073,2.084-1.354,2.573h9.145v1.131H101.464
				z M110.557,49.103c-4.521-3.293-6.309-8.284-6.896-13.224c-0.23,0.231-0.511,0.489-0.792,0.772v12.554h-2.529V39.018
				c-0.817,0.721-1.277,1.08-1.813,1.518l-1.047-0.951c3.959-3.576,6.207-7.744,6.488-8.388l2.503,1.287
				c0.077,0.025,0.179,0.129,0.179,0.257c0,0.231-0.179,0.335-0.613,0.515c-0.409,0.515-0.971,1.184-2.375,2.599l2.682,0.025
				c0.026,0.772,0.051,1.544,0.307,3.087c1.251-1.26,2.554-3.344,2.938-4.168l1.788,1.75c0.051,0.052,0.102,0.129,0.102,0.206
				c0,0.128-0.127,0.309-0.434,0.386c-1.149,1.106-2.35,2.136-4.062,3.345c0.511,2.135,1.865,5.402,4.572,7.666L110.557,49.103z"/>
			<path style="fill:#333333;" d="M134.218,36.471v7.563c0.536,3.216,3.218,3.422,6.487,3.422h4.343
				c2.171,0,6.232-0.077,8.046-0.309l-0.332,1.466h-12.721c-3.295,0-5.722,0-7.305-2.393c-0.665,0.721-1.737,1.827-2.401,2.521
				c-0.077,0.412-0.153,0.566-0.332,0.566c-0.077,0-0.179-0.052-0.23-0.154l-1.098-2.007c0.843-0.335,1.558-0.85,2.988-2.007v-7.513
				h-2.427v-1.157H134.218z M132.302,33.332c-0.332-1.569-1.073-3.37-3.142-6.792l0.944-0.849c1.941,1.903,3.653,4.271,4.521,5.583
				L132.302,33.332z M139.147,33.847h3.755c0,2.496-0.052,9.03-0.869,10.728c-0.485,0.978-1.021,1.235-2.324,1.235h-1.89
				l-0.358-1.338c0.409,0.077,0.945,0.154,1.609,0.154c0.409,0,0.895,0,1.099-0.875c0.485-1.955,0.511-5.273,0.562-8.746h-1.583
				c-0.052,2.314-0.128,6.354-3.372,10.444l-1.099-0.694c2.12-3.345,2.12-6.689,2.12-10.471v-3.756h-1.941V29.37h2.964v-2.495
				c0-0.411-0.077-0.849-0.179-1.338l2.324,0.026c0.179,0,0.332,0.025,0.332,0.256c0,0.078-0.025,0.283-0.077,0.489v3.062h2.683
				v1.158h-3.755V33.847z M152.354,28.804v1.158h-6.872c-0.485,0.721-1.072,1.467-2.375,2.959l-1.047-0.67
				c1.583-2.083,2.554-4.939,2.835-6.971L147.5,26c0.102,0.026,0.229,0.103,0.229,0.206c0,0.18-0.153,0.359-0.383,0.592
				c-0.281,0.566-0.563,1.08-1.099,2.006H152.354z M148.599,38.297h3.729v1.158h-3.729V43.7c0,1.697-0.537,2.212-2.273,2.212h-2.223
				l-0.408-1.389c0.536,0.154,1.2,0.257,1.762,0.257c0.716,0,0.716-0.309,0.716-1.08v-4.245h-3.015v-1.158h3.015v-2.675l1.609,0.205
				c0.408-0.643,0.715-1.312,0.894-2.058h-4.904v-1.157h7.944v0.926c-1.022,1.595-2.964,3.422-3.116,3.551V38.297z"/>
			<path style="fill:#333333;" d="M179.334,29.937v1.157h-8.583v-1.157H179.334z M178.439,40.922v7.203h-4.776v0.951h-2.273v-8.154
				H178.439z M178.439,26.36v1.158h-6.896V26.36H178.439z M178.439,33.667v1.157h-6.896v-1.157H178.439z M178.439,37.165v1.158
				h-6.896v-1.158H178.439z M173.663,42.079v4.888h2.759v-4.888H173.663z M194.175,43.751v1.132h-1.712v1.853
				c0,1.286-0.051,2.264-2.018,2.264h-3.423l-0.307-1.337c0.767,0.154,1.686,0.257,2.452,0.257c0.843,0,0.843-0.438,0.843-1.338
				v-1.698h-7.05v4.193h-2.478v-4.193h-1.354v-1.132h1.354v-6.688h4.802v-1.749h-6.028v-1.158h3.04v-2.238h-1.839v-1.158h1.839
				v-2.058h-2.452v-1.132h2.452v-0.643c0-0.489-0.025-0.746-0.103-1.39l2.376,0.052c0.025,0,0.357,0.025,0.357,0.18
				c0,0.025-0.153,0.488-0.179,0.54v1.261h3.576v-0.771c0-0.617,0-0.695-0.103-1.261l2.478,0.052c0.077,0,0.307,0.025,0.307,0.154
				c0,0.051-0.127,0.359-0.179,0.463v1.363h2.836v1.132h-2.836v2.058h2.223v1.158h-2.223v2.238h3.347v1.158h-6.488v1.749h4.776
				v6.688H194.175z M185.285,40.407v-2.213h-2.324v2.213H185.285z M185.285,43.751v-2.212h-2.324v2.212H185.285z M184.749,28.701
				v2.058h3.576v-2.058H184.749z M184.749,31.917v2.238h3.576v-2.238H184.749z M190.011,40.407v-2.213h-2.324v2.213H190.011z
				 M190.011,43.751v-2.212h-2.324v2.212H190.011z"/>
			<path style="fill:#333333;" d="M235.74,28.058v1.158H216.43v8.438c0,5.171-2.018,8.798-3.883,11.088l-1.123-0.721
				c2.478-4.167,2.503-8.104,2.503-10.161v-9.803h9.042v-1.26c0-0.721-0.051-1.106-0.102-1.415l2.528,0.052
				c0.204,0,0.409,0.076,0.409,0.23s-0.103,0.412-0.18,0.566v1.826H235.74z M234.004,41.23v1.157h-6.82v4.733h8.557v1.158h-20.332
				v-1.158h9.17v-4.733H217.4V41.23h7.178v-9.545c0-0.489-0.051-1.028-0.153-1.595l2.555,0.103c0.076,0,0.332,0.026,0.332,0.206
				c0,0.104-0.103,0.359-0.128,0.488V41.23H234.004z M223.685,39.712c-1.609-1.055-3.143-2.881-3.551-3.396
				c-1.149,1.775-1.891,2.624-2.529,3.345l-0.971-0.618c2.555-3.756,3.27-7.022,3.321-8.231l2.58,0.668
				c0.102,0.025,0.229,0.129,0.229,0.232c0,0.154-0.179,0.309-0.409,0.488c-0.204,0.54-0.434,1.08-0.944,2.032
				c0.28,0.618,1.251,2.778,3.142,4.451L223.685,39.712z M235.025,39.635c-2.631-1.286-4.291-3.087-4.444-3.241
				c-1.124,1.878-1.737,2.599-2.197,3.164l-0.996-0.617c0.895-1.518,2.708-5.608,2.836-8.182l2.528,0.746
				c0.103,0.026,0.307,0.129,0.307,0.283s-0.307,0.387-0.383,0.463c-0.307,0.721-0.485,1.158-0.92,2.008
				c1.405,2.598,3.346,3.807,4.112,4.271L235.025,39.635z"/>
		</g>
		<g>
			<path style="fill:#638C0B;stroke:#FFFFFF;stroke-miterlimit:10;" d="M29.77,41.543c0,4.99,4.863,9.033,10.86,9.033
				c5.993,0,10.854-4.043,10.854-9.033v-9.667H29.77V41.543z"/>
			<g>
				<g>
					<polygon style="fill-rule:evenodd;clip-rule:evenodd;fill:#638C0B;" points="43.211,56.256 43.211,51.099 38.088,51.099 
						38.088,56.256 29.547,56.256 29.547,61.415 51.752,61.415 51.752,56.256 					"/>
				</g>
				<g>
					<polygon style="fill:none;stroke:#FFFFFF;stroke-miterlimit:10;" points="43.211,56.256 43.211,51.099 38.088,51.099 
						38.088,56.256 29.547,56.256 29.547,61.415 51.752,61.415 51.752,56.256 					"/>
				</g>
			</g>
			<path style="fill-rule:evenodd;clip-rule:evenodd;fill:#638C0B;stroke:#FFFFFF;stroke-miterlimit:10;" d="M40.651,13.251
				c4.244,0,7.686,3.465,7.686,7.738v18.917c0,4.274-3.442,7.738-7.686,7.738c-4.245,0-7.688-3.464-7.688-7.738V20.989
				C32.963,16.716,36.406,13.251,40.651,13.251z"/>
		</g>
	</g>
</g>
<g id="&#x5F71;&#x50CF;_xA0_43_1_">
	<g id="&#x5F71;&#x50CF;_xA0_36_xA0_&#x5F71;&#x50CF;_1_" style="display:none;">
		
			<image style="display:inline;overflow:visible;" width="52" height="52" id="&#x5F71;&#x50CF;_xA0_36_xA0_&#x5F71;&#x50CF;" xlink:href="4134D49C.png"  transform="matrix(1 0 0 1 34.5 -176.667)">
		</image>
	</g>
	<g id="&#x5BEB;&#x597D;&#x6587;A&#x597D;&#x5EB7;">
	</g>
</g>
<g id="&#x5F71;&#x50CF;_xA0_63_1_">
	<g id="&#x5F71;&#x50CF;_xA0_46_xA0_&#x5F71;&#x50CF;_1_" style="display:none;">
		
			<image style="display:inline;overflow:visible;" width="52" height="52" id="&#x5F71;&#x50CF;_xA0_46_xA0_&#x5F71;&#x50CF;" xlink:href="4134D494.png"  transform="matrix(1 0 0 1 34.5 -176.667)">
		</image>
	</g>
	<g id="&#x7FA4;&#x7D44;_5_1_">
	</g>
	<g id="&#x4FE1;&#x7528;&#x5361;&#x512A;&#x60E0;">
	</g>
</g>
<g id="&#x5F71;&#x50CF;_xA0_71_1_">
	<g id="&#x5178;_&#x85CF;_&#x65C5;_&#x904A;">
	</g>
</g>
</svg>
