<?xml version="1.0" encoding="iso-8859-1"?>
<!-- Generator: Adobe Illustrator 16.0.0, SVG Export Plug-In . SVG Version: 6.00 Build 0)  -->
<!DOCTYPE svg PUBLIC "-//W3C//DTD SVG 1.1//EN" "http://www.w3.org/Graphics/SVG/1.1/DTD/svg11.dtd">
<svg version="1.1" xmlns="http://www.w3.org/2000/svg" xmlns:xlink="http://www.w3.org/1999/xlink" x="0px" y="0px" width="250px"
	 height="250px" viewBox="0 0 250 250" style="enable-background:new 0 0 250 250;" xml:space="preserve">
<g id="&#x80CC;&#x666F;_xA0_&#x5F71;&#x50CF;_1_" style="display:none;">
	
		<image style="display:inline;overflow:visible;" width="191" height="58" id="&#x80CC;&#x666F;_xA0_&#x5F71;&#x50CF;" xlink:href="B9EDE443.jpg"  transform="matrix(1.3079 0 0 1.3079 -581.1196 86.9404)">
	</image>
	
		<image style="display:inline;overflow:visible;" width="191" height="58" id="&#x80CC;&#x666F;_xA0_&#x5F71;&#x50CF;_2_" xlink:href="B9EDE441.jpg"  transform="matrix(1.3079 0 0 1.3079 -581.1196 -4.3936)">
	</image>
	
		<image style="display:inline;overflow:visible;" width="191" height="58" id="&#x80CC;&#x666F;_xA0_&#x5F71;&#x50CF;_3_" xlink:href="B9EDE447.jpg"  transform="matrix(1.3079 0 0 1.3079 -581.1196 179.6069)">
	</image>
	
		<image style="display:inline;overflow:visible;" width="191" height="58" id="&#x80CC;&#x666F;_xA0_&#x5F71;&#x50CF;_4_" xlink:href="B9EDE440.jpg"  transform="matrix(1.3079 0 0 1.3079 -581.1196 275.6069)">
	</image>
	
		<image style="display:inline;overflow:visible;" width="191" height="58" id="&#x80CC;&#x666F;_xA0_&#x5F71;&#x50CF;_5_" xlink:href="B9EDE44E.jpg"  transform="matrix(1.3079 0 0 1.3079 -581.1196 371.6069)">
	</image>
	
		<image style="display:inline;overflow:visible;" width="191" height="58" id="&#x80CC;&#x666F;_xA0_&#x5F71;&#x50CF;_6_" xlink:href="B9EDE44F.jpg"  transform="matrix(1.3079 0 0 1.3079 -581.1196 468.2739)">
	</image>
</g>
<g id="&#x65C5;&#x96AA;_1_">
	<g id="&#x7FA4;&#x7D44;_2_1_">
	</g>
	<g id="&#x7F8E;&#x5546;&#x5B89;&#x9054;&#x65C5;&#x96AA;">
	</g>
</g>
<g id="&#x5F71;&#x50CF;_xA0_23_1_">
	<g id="&#x611B;_&#x5FC3;_&#x6350;_&#x8D08;">
	</g>
</g>
<g id="&#x5F71;&#x50CF;_xA0_33_1_">
	<g id="&#x65C5;_&#x904A;_&#x8B1B;_&#x5EA7;">
	</g>
</g>
<g id="&#x5F71;&#x50CF;_xA0_43_1_">
	<g id="&#x5F71;&#x50CF;_xA0_36_xA0_&#x5F71;&#x50CF;_1_" style="display:none;">
		
			<image style="display:inline;overflow:visible;" width="52" height="52" id="&#x5F71;&#x50CF;_xA0_36_xA0_&#x5F71;&#x50CF;" xlink:href="B9EDE44F.png"  transform="matrix(1 0 0 1 -546.8184 98.9995)">
		</image>
	</g>
	<g id="&#x5BEB;&#x597D;&#x6587;A&#x597D;&#x5EB7;">
	</g>
</g>
<g id="&#x5F71;&#x50CF;_xA0_63_1_">
	<g id="&#x5F71;&#x50CF;_xA0_46_xA0_&#x5F71;&#x50CF;_1_" style="display:none;">
		
			<image style="display:inline;overflow:visible;" width="52" height="52" id="&#x5F71;&#x50CF;_xA0_46_xA0_&#x5F71;&#x50CF;" xlink:href="B9EDE441.png"  transform="matrix(1 0 0 1 -546.8184 98.9995)">
		</image>
	</g>
	<g id="&#x7FA4;&#x7D44;_5_1_">
	</g>
	<g id="&#x4FE1;&#x7528;&#x5361;&#x512A;&#x60E0;">
	</g>
</g>
<g id="&#x5F71;&#x50CF;_xA0_71_1_">
	<g id="&#x5178;_&#x85CF;_&#x65C5;_&#x904A;">
	</g>
	<g>
		<g id="&#x6A62;&#x5713;_1_&#x62F7;&#x8C9D;_4_2_">
			<path style="fill:#AA89BD;" d="M125.296,1.555c-68.033,0-123.18,55.528-123.18,124.015c0,68.488,55.146,124.014,123.18,124.014
				c68.025,0,123.176-55.525,123.176-124.014C248.472,57.083,193.321,1.555,125.296,1.555z"/>
		</g>
		<g id="&#x5713;&#x89D2;&#x77E9;&#x5F62;_5_2_">
			<g>
				<path style="fill:#AE5DA1;stroke:#FFFFFF;stroke-width:5;stroke-miterlimit:10;" d="M231.666,156.537l-33.473-83.145
					c-2.175-5.405-8.288-8.01-13.658-5.813L48.521,123.082c-5.362,2.185-7.952,8.345-5.777,13.75l33.476,83.135
					c2.179,5.404,8.287,8.008,13.654,5.822l136.016-55.512C231.254,168.091,233.844,161.931,231.666,156.537z"/>
			</g>
			<g>
				<path style="fill:none;stroke:#FFFFFF;stroke-width:5;stroke-miterlimit:10;" d="M231.666,156.537l-33.473-83.145
					c-2.175-5.405-8.288-8.01-13.658-5.813L48.521,123.082c-5.362,2.185-7.952,8.345-5.777,13.75l33.476,83.135
					c2.179,5.404,8.287,8.008,13.654,5.822l136.016-55.512C231.254,168.091,233.844,161.931,231.666,156.537z"/>
			</g>
		</g>
		<g id="&#x77E9;&#x5F62;_7_2_">
			<polygon style="fill:#FFFFFF;" points="152.013,129.242 68.479,160.498 77.611,185.23 161.137,153.976 			"/>
		</g>
		<g id="&#x77E9;&#x5F62;_6_2_">
			<polygon style="fill:#FFFFFF;" points="215.794,148.466 85.191,203.355 87.211,208.218 217.813,153.333 			"/>
		</g>
		<g id="&#x5713;&#x89D2;&#x77E9;&#x5F62;_5_&#x62F7;&#x8C9D;_2_">
			<g>
				<path style="fill:#EA68A2;stroke:#FFFFFF;stroke-width:5;stroke-miterlimit:10;" d="M196.056,49.056H49.293
					c-5.793,0-10.484,4.725-10.484,10.549v89.711c0,5.836,4.691,10.559,10.484,10.559h146.763c5.791,0,10.486-4.723,10.486-10.559
					V59.604C206.542,53.78,201.847,49.056,196.056,49.056z"/>
			</g>
			<g>
				<path style="fill:none;stroke:#FFFFFF;stroke-width:5;stroke-miterlimit:10;" d="M196.056,49.056H49.293
					c-5.793,0-10.484,4.725-10.484,10.549v89.711c0,5.836,4.691,10.559,10.484,10.559h146.763c5.791,0,10.486-4.723,10.486-10.559
					V59.604C206.542,53.78,201.847,49.056,196.056,49.056z"/>
			</g>
		</g>
		<g id="&#x6A62;&#x5713;_1_2_">
			<path style="fill:#FFFFFF;" d="M67.636,75.438c-7.235,0-13.106,5.903-13.106,13.196c0,7.284,5.871,13.191,13.106,13.191
				c7.234,0,13.105-5.907,13.105-13.191C80.741,81.341,74.87,75.438,67.636,75.438z"/>
		</g>
		<g id="&#x5713;&#x89D2;&#x77E9;&#x5F62;_6_2_">
			<path style="fill:#FFFFFF;" d="M175.09,64.882h-20.964c-8.688,0-15.724,7.09-15.724,15.836c0,8.738,7.035,15.828,15.724,15.828
				h20.964c8.685,0,15.722-7.09,15.722-15.828C190.812,71.972,183.774,64.882,175.09,64.882z"/>
		</g>
		<g id="&#x77E9;&#x5F62;_5_2_">
			<rect x="49.293" y="117.651" style="fill:#FFFFFF;" width="31.448" height="5.28"/>
		</g>
		<g id="&#x77E9;&#x5F62;_5_&#x62F7;&#x8C9D;_4_2_">
			<rect x="54.529" y="138.763" style="fill:#FFFFFF;" width="31.452" height="5.281"/>
		</g>
		<g id="&#x77E9;&#x5F62;_5_&#x62F7;&#x8C9D;_5_2_">
			<rect x="91.222" y="138.763" style="fill:#FFFFFF;" width="26.212" height="5.281"/>
		</g>
		<g id="&#x77E9;&#x5F62;_5_&#x62F7;&#x8C9D;_6_2_">
			<rect x="122.67" y="138.763" style="fill:#FFFFFF;" width="26.212" height="5.281"/>
		</g>
		<g id="&#x77E9;&#x5F62;_5_&#x62F7;&#x8C9D;_2_">
			<rect x="85.981" y="117.651" style="fill:#FFFFFF;" width="31.452" height="5.28"/>
		</g>
		<g id="&#x77E9;&#x5F62;_5_&#x62F7;&#x8C9D;_2_2_">
			<rect x="122.67" y="117.651" style="fill:#FFFFFF;" width="31.456" height="5.28"/>
		</g>
		<g id="&#x77E9;&#x5F62;_5_&#x62F7;&#x8C9D;_3_2_">
			<rect x="159.362" y="117.651" style="fill:#FFFFFF;" width="31.449" height="5.28"/>
		</g>
	</g>
</g>
</svg>
