<?xml version="1.0" encoding="utf-8"?>
<!-- Generator: Adobe Illustrator 16.0.0, SVG Export Plug-In . SVG Version: 6.00 Build 0)  -->
<!DOCTYPE svg PUBLIC "-//W3C//DTD SVG 1.1//EN" "http://www.w3.org/Graphics/SVG/1.1/DTD/svg11.dtd">
<svg version="1.1" id="Capa_1" xmlns="http://www.w3.org/2000/svg" xmlns:xlink="http://www.w3.org/1999/xlink" x="0px" y="0px"
	 width="1040px" height="1040px" viewBox="0 0 1040 1040" enable-background="new 0 0 1040 1040" xml:space="preserve">
<g>
	<g>
		<path fill="#FFFFFF" d="M988,69.333H866.666v-52C866.666,8.666,858,0,849.333,0H728c-8.667,0-17.334,8.667-17.334,17.333v52
			H329.333v-52C329.333,8.666,320.666,0,312,0H190.667C182,0,173.334,8.667,173.334,17.333v52H52
			c-8.667,0-17.333,8.667-17.333,17.333v936c0,8.667,8.667,17.334,17.333,17.334h936c8.666,0,17.333-8.667,17.333-17.334v-936
			C1005.333,76.267,996.666,69.333,988,69.333z M745.333,34.666H832v104h-86.667V34.666z M208,34.666h86.667v104H208V34.666z
			 M970.666,1005.333H69.333V294.666h901.333V1005.333z M970.666,260H69.333V104h104v52c0,8.666,8.667,17.333,17.333,17.333H312
			c8.667,0,17.333-8.667,17.333-17.333v-52h381.333v52c0,8.666,8.667,17.333,17.334,17.333h121.333
			c8.667,0,17.333-8.667,17.333-17.333v-52h104V260z"/>
		<path fill="#FFFFFF" d="M970.666,104v156H69.333V104h104v52c0,8.666,8.667,17.333,17.333,17.333H312
			c8.667,0,17.333-8.667,17.333-17.333v-52h381.333v52c0,8.666,8.667,17.333,17.334,17.333h121.333
			c8.667,0,17.333-8.667,17.333-17.333v-52H970.666L970.666,104z"/>
		<path fill="#FFFFFF" d="M658.666,398.666H537.333h-34.667H381.333h-34.666h-156v156v34.667v121.332v34.668v156h156h34.667h121.333
			h34.667h121.333h34.667h156v-156v-34.668V589.333v-34.667v-156h-156H658.666z M537.333,433.333h121.333v121.333H537.333V433.333z
			 M658.666,710.666H537.333V589.333h121.333V710.666z M381.333,589.333h121.333v121.332H381.333V589.333z M381.333,433.333h121.333
			v121.333H381.333V433.333z M225.333,433.333h121.334v121.333H225.333V433.333z M225.333,589.333h121.334v121.332H225.333V589.333z
			 M346.667,866.666H225.333V745.333h121.334V866.666z M502.667,866.666H381.333V745.333h121.333L502.667,866.666L502.667,866.666z
			 M658.666,866.666H537.333V745.333h121.333V866.666z M814.666,866.666H693.333V745.333h121.333V866.666z M814.666,710.666H693.333
			V589.333h121.333V710.666z M814.666,433.333v121.333H693.333V433.333H814.666z"/>
	</g>
	<rect x="138.667" y="142.133" fill="#FFFFFF" width="793.867" height="50.267"/>
</g>
</svg>
