<?xml version="1.0" encoding="utf-8"?>
<!-- Generator: Adobe Illustrator 19.0.1, SVG Export Plug-In . SVG Version: 6.00 Build 0)  -->
<svg version="1.1" id="圖層_1" xmlns="http://www.w3.org/2000/svg" xmlns:xlink="http://www.w3.org/1999/xlink" x="0px" y="0px"
	 viewBox="0 0 2409.4 2126" style="enable-background:new 0 0 2409.4 2126;" xml:space="preserve">
<style type="text/css">
	.st0{fill:#D9AC65;}
</style>
<path class="st0" d="M1247.2,1085.2v-44.4h-85v44.4H1247.2z M1182.5,1071.7c-0.8-1.7-1.8-3.3-3.2-4.6c-1.3-1.3-2.9-2.4-4.6-3.2h5.7
	c0.4,0.3,0.9,0.6,1.3,0.7c0.1,0.5,0.4,0.9,0.7,1.3V1071.7z M1182.5,1060c-0.3,0.4-0.6,0.9-0.7,1.3c-0.5,0.1-0.9,0.4-1.3,0.7h-5.7
	c1.7-0.8,3.3-1.8,4.6-3.2c1.3-1.3,2.4-2.9,3.2-4.6V1060z M1225,1076.3c-0.6-0.8-1.6-1.3-2.7-1.3c-0.5,0-1,0.2-1.4,0.5
	c-0.9,0.7-1.2,1.5-1.1,2.2c0.1,1.2,1.9,1,1.9-0.1c0-0.4,0.3-0.6,0.6-0.6c0.9,0,1.7,0.8,1.6,1.8c-0.1,0.9-0.9,1.5-1.8,1.5
	c-3.7,0-7-1.5-9.4-4c-2.4-2.4-3.9-5.7-4-9.4c0-0.9,0.6-1.7,1.5-1.8c1-0.1,1.8,0.7,1.8,1.6c0,0.4-0.3,0.6-0.6,0.6
	c-1.2,0-1.3,1.8-0.1,1.9c0.7,0.1,1.5-0.3,2.2-1.1c0.3-0.4,0.5-0.9,0.5-1.4c0-1.1-0.5-2-1.3-2.7h10.3c0.4,0.3,0.9,0.6,1.3,0.7
	c0.1,0.5,0.4,0.9,0.7,1.3V1076.3z M1225,1060c-0.3,0.4-0.6,0.9-0.7,1.3c-0.5,0.1-0.9,0.4-1.3,0.7h-10.3c0.8-0.6,1.3-1.6,1.3-2.7
	c0-0.5-0.2-1-0.5-1.4c-0.7-0.9-1.5-1.2-2.2-1.1c-1.2,0.1-1,1.9,0.1,1.9c0.4,0,0.6,0.3,0.6,0.6c0,0.9-0.8,1.7-1.8,1.6
	c-0.9-0.1-1.5-0.9-1.5-1.8c0-3.7,1.5-7,4-9.4c2.4-2.4,5.7-3.9,9.4-4c0.9,0,1.7,0.6,1.8,1.5c0.1,1-0.7,1.8-1.6,1.8
	c-0.4,0-0.6-0.3-0.6-0.6c0-1.2-1.8-1.3-1.9-0.1c-0.1,0.7,0.3,1.5,1.1,2.2c0.4,0.3,0.9,0.5,1.4,0.5c1.1,0,2-0.5,2.7-1.3V1060z
	 M1226.9,1044.7c0.3-0.4,0.6-0.9,0.7-1.3c0.5-0.1,0.9-0.4,1.3-0.7h15.3c0.4,0.3,0.9,0.6,1.3,0.7c0.1,0.5,0.4,0.9,0.7,1.3v15.3
	c-0.3,0.4-0.6,0.9-0.7,1.3c-0.5,0.1-0.9,0.4-1.3,0.7h-0.6c0.8-0.7,1.3-1.8,1.3-2.9c-0.1-4.1-1.8-7.9-4.5-10.6
	c-2.7-2.7-6.5-4.4-10.6-4.5c-1.1,0-2.2,0.5-2.9,1.3V1044.7z M1226.9,1049.7c0.6,0.8,1.6,1.3,2.7,1.3c0.5,0,1-0.2,1.4-0.5
	c0.9-0.7,1.2-1.5,1.1-2.2c-0.1-1.2-1.9-1-1.9,0.1c0,0.4-0.3,0.6-0.6,0.6c-0.9,0-1.7-0.8-1.6-1.8c0.1-0.9,0.9-1.5,1.8-1.5
	c3.7,0,7,1.5,9.4,4c2.4,2.4,3.9,5.7,4,9.4c0,0.9-0.6,1.7-1.5,1.8c-1,0.1-1.8-0.7-1.8-1.6c0-0.4,0.3-0.6,0.6-0.6
	c1.2,0,1.3-1.8,0.1-1.9c-0.7,0-1.5,0.3-2.2,1.1c-0.3,0.4-0.5,0.9-0.5,1.4c0,1.1,0.5,2,1.3,2.7H1229c-0.4-0.3-0.9-0.6-1.3-0.7
	c-0.1-0.5-0.4-0.9-0.7-1.3V1049.7z M1226.9,1066c0.3-0.4,0.6-0.9,0.7-1.3c0.5-0.1,0.9-0.4,1.3-0.7h10.3c-0.8,0.6-1.3,1.6-1.3,2.7
	c0,0.5,0.2,1,0.5,1.4c0.7,0.9,1.5,1.2,2.2,1.1c1.2-0.1,1-1.9-0.1-1.9c-0.4,0-0.6-0.3-0.6-0.6c0-0.9,0.8-1.7,1.8-1.6
	c0.9,0.1,1.5,0.9,1.5,1.8c0,3.7-1.5,7-4,9.4c-2.4,2.4-5.7,3.9-9.4,4c-0.9,0-1.7-0.6-1.8-1.5c-0.1-1,0.7-1.8,1.6-1.8
	c0.4,0,0.6,0.3,0.6,0.6c0,1.2,1.8,1.3,1.9,0.1c0.1-0.7-0.3-1.5-1.1-2.2c-0.4-0.3-0.9-0.5-1.4-0.5c-1.1,0-2,0.5-2.7,1.3V1066z
	 M1226.9,1080.7c0.7,0.8,1.8,1.3,2.9,1.3c4.1-0.1,7.9-1.8,10.6-4.5c2.7-2.7,4.4-6.5,4.5-10.6c0-1.1-0.5-2.2-1.3-2.9h0.6
	c0.4,0.3,0.9,0.6,1.3,0.7c0.1,0.5,0.4,0.9,0.7,1.3v15.3c-0.3,0.4-0.6,0.9-0.7,1.3c-0.5,0.1-0.9,0.4-1.3,0.7H1229
	c-0.4-0.3-0.9-0.6-1.3-0.7c-0.1-0.5-0.4-0.9-0.7-1.3V1080.7z M1205.7,1044.7c0.3-0.4,0.6-0.9,0.7-1.3c0.5-0.1,0.9-0.4,1.3-0.7h15.3
	c0.4,0.3,0.9,0.6,1.3,0.7c0.1,0.5,0.4,0.9,0.7,1.3v0.6c-0.7-0.8-1.8-1.3-2.9-1.3c-4.1,0.1-7.9,1.8-10.6,4.5
	c-2.7,2.7-4.4,6.5-4.5,10.6c0,1.1,0.5,2.2,1.3,2.9h-0.6c-0.4-0.3-0.9-0.6-1.3-0.7c-0.1-0.5-0.4-0.9-0.7-1.3V1044.7z M1205.7,1066
	c0.3-0.4,0.6-0.9,0.7-1.3c0.5-0.1,0.9-0.4,1.3-0.7h0.6c-0.8,0.7-1.3,1.8-1.3,2.9c0.1,4.1,1.8,7.9,4.5,10.6c2.7,2.7,6.5,4.4,10.6,4.5
	c1.1,0,2.2-0.5,2.9-1.3v0.6c-0.3,0.4-0.6,0.9-0.7,1.3c-0.5,0.1-0.9,0.4-1.3,0.7h-15.3c-0.4-0.3-0.9-0.6-1.3-0.7
	c-0.1-0.5-0.4-0.9-0.7-1.3V1066z M1184.4,1044.7c0.3-0.4,0.6-0.9,0.7-1.3c0.5-0.1,0.9-0.4,1.3-0.7h15.3c0.4,0.3,0.9,0.6,1.3,0.7
	c0.1,0.5,0.4,0.9,0.7,1.3v15.3c-0.3,0.4-0.6,0.9-0.7,1.3c-0.5,0.1-0.9,0.4-1.3,0.7h-0.6c0.4-0.5,0.7-1,0.7-1.7c0.3-2.1-1.4-4-3.5-4
	c-0.5,0-1,0.2-1.4,0.5c-0.9,0.7-1.2,1.5-1.1,2.2c0.1,1.2,1.9,1,1.9-0.1c0-0.4,0.3-0.6,0.6-0.6c0.9,0,1.7,0.8,1.6,1.8
	c-0.1,0.9-0.9,1.5-1.8,1.5c-3.7,0-7-1.5-9.4-4c-2.4-2.4-3.9-5.7-4-9.4c0-0.9,0.6-1.7,1.5-1.8c1-0.1,1.8,0.7,1.8,1.6
	c0,0.4-0.3,0.6-0.6,0.6c-1.2,0-1.3,1.8-0.1,1.9c0.7,0.1,1.5-0.3,2.2-1.1c0.3-0.4,0.5-0.9,0.5-1.4c0-2.1-1.8-3.7-4-3.5
	c-0.6,0.1-1.2,0.4-1.7,0.7V1044.7z M1184.4,1054.3c0.8,1.7,1.8,3.3,3.2,4.6c1.3,1.3,2.9,2.4,4.6,3.2h-5.7c-0.4-0.3-0.9-0.6-1.3-0.7
	c-0.1-0.5-0.4-0.9-0.7-1.3V1054.3z M1184.4,1066c0.3-0.4,0.6-0.9,0.7-1.3c0.5-0.1,0.9-0.4,1.3-0.7h5.7c-1.7,0.8-3.3,1.8-4.6,3.2
	c-1.3,1.3-2.4,2.9-3.2,4.6V1066z M1184.4,1080.7c0.5,0.4,1,0.7,1.7,0.7c2.1,0.3,4-1.4,4-3.5c0-0.5-0.2-1-0.5-1.4
	c-0.7-0.9-1.5-1.2-2.2-1.1c-1.2,0.1-1,1.9,0.1,1.9c0.4,0,0.6,0.3,0.6,0.6c0,0.9-0.8,1.7-1.8,1.6c-0.9-0.1-1.5-0.9-1.5-1.8
	c0-3.7,1.5-7,4-9.4c2.4-2.4,5.7-3.9,9.4-4c0.9,0,1.7,0.6,1.8,1.5c0.1,1-0.7,1.8-1.6,1.8c-0.4,0-0.6-0.3-0.6-0.6
	c0-1.2-1.8-1.3-1.9-0.1c-0.1,0.7,0.3,1.5,1.1,2.2c0.4,0.3,0.9,0.5,1.4,0.5c2.1,0,3.7-1.8,3.5-4c-0.1-0.6-0.4-1.2-0.7-1.7h0.6
	c0.4,0.3,0.9,0.6,1.3,0.7c0.1,0.5,0.4,0.9,0.7,1.3v15.3c-0.3,0.4-0.6,0.9-0.7,1.3c-0.5,0.1-0.9,0.4-1.3,0.7h-15.3
	c-0.4-0.3-0.9-0.6-1.3-0.7c-0.1-0.5-0.4-0.9-0.7-1.3V1080.7z M1163.1,1044.7c0.3-0.4,0.6-0.9,0.7-1.3c0.5-0.1,0.9-0.4,1.3-0.7h15.3
	c0.4,0.3,0.9,0.6,1.3,0.7c0.1,0.5,0.4,0.9,0.7,1.3v0.6c-0.5-0.4-1-0.7-1.7-0.7c-2.1-0.3-4,1.4-4,3.5c0,0.5,0.2,1,0.5,1.4
	c0.7,0.9,1.5,1.2,2.2,1.1c1.2-0.1,1-1.9-0.1-1.9c-0.4,0-0.6-0.3-0.6-0.6c0-0.9,0.8-1.7,1.8-1.6c0.9,0.1,1.5,0.9,1.5,1.8
	c0,3.7-1.5,7-4,9.4c-2.4,2.4-5.7,3.9-9.4,4c-0.9,0-1.7-0.6-1.8-1.5c-0.1-1,0.7-1.8,1.6-1.8c0.4,0,0.6,0.3,0.6,0.6
	c0,1.2,1.8,1.3,1.9,0.1c0.1-0.7-0.3-1.5-1.1-2.2c-0.4-0.3-0.9-0.5-1.4-0.5c-2.1,0-3.7,1.8-3.5,4c0.1,0.6,0.4,1.2,0.7,1.7h-0.6
	c-0.4-0.3-0.9-0.6-1.3-0.7c-0.1-0.5-0.4-0.9-0.7-1.3V1044.7z M1163.1,1066c0.3-0.4,0.6-0.9,0.7-1.3c0.5-0.1,0.9-0.4,1.3-0.7h0.6
	c-0.4,0.5-0.7,1-0.7,1.7c-0.3,2.1,1.4,4,3.5,4c0.5,0,1-0.2,1.4-0.5c0.9-0.7,1.2-1.5,1.1-2.2c-0.1-1.2-1.9-1-1.9,0.1
	c0,0.4-0.3,0.6-0.6,0.6c-0.9,0-1.7-0.8-1.6-1.8c0.1-0.9,0.9-1.5,1.8-1.5c3.7,0,7,1.5,9.4,4c2.4,2.4,3.9,5.7,4,9.4
	c0,0.9-0.6,1.7-1.5,1.8c-1,0.1-1.8-0.7-1.8-1.6c0-0.4,0.3-0.6,0.6-0.6c1.2,0,1.3-1.8,0.1-1.9c-0.7,0-1.5,0.3-2.2,1.1
	c-0.3,0.4-0.5,0.9-0.5,1.4c0,2.1,1.8,3.7,4,3.5c0.6-0.1,1.2-0.4,1.7-0.7v0.6c-0.3,0.4-0.6,0.9-0.7,1.3c-0.5,0.1-0.9,0.4-1.3,0.7
	h-15.3c-0.4-0.3-0.9-0.6-1.3-0.7c-0.1-0.5-0.4-0.9-0.7-1.3V1066z"/>
</svg>
