<?xml version="1.0" encoding="utf-8"?>
<!-- Generator: Adobe Illustrator 16.0.0, SVG Export Plug-In . SVG Version: 6.00 Build 0)  -->
<!DOCTYPE svg PUBLIC "-//W3C//DTD SVG 1.1//EN" "http://www.w3.org/Graphics/SVG/1.1/DTD/svg11.dtd">
<svg version="1.1" id="圖層_2" xmlns="http://www.w3.org/2000/svg" xmlns:xlink="http://www.w3.org/1999/xlink" x="0px" y="0px"
	 width="30px" height="29.6px" viewBox="465 265.2 30 29.6" enable-background="new 465 265.2 30 29.6" xml:space="preserve">
<path fill="#8C3C37" d="M494.788,280.134c0-0.105,0-0.105,0-0.208l0,0l0,0c0,0,0-0.103-0.104-0.103c0,0-0.103,0-0.103-0.105
	c0,0,0,0-0.104,0l-2.588-1.137c-0.519-1.556-1.969-2.9-4.248-3.832l-0.103-0.105c-0.519-0.205-0.932-0.413-1.242-0.724
	s-0.519-0.829-0.727-1.243l-0.103-0.105c-0.932-2.277-2.279-3.624-3.832-4.245l-1.14-2.59l0,0c0,0,0-0.103-0.103-0.103
	c0,0-0.103,0-0.103-0.103c0,0,0,0-0.105,0l0,0c0,0-0.103,0-0.206,0l0,0l0,0c-0.105,0-0.105,0-0.208,0l0,0c0,0,0,0-0.103,0
	c0,0-0.105,0-0.105,0.103l-0.103,0.103l0,0l-1.14,2.59c-1.553,0.518-2.9,1.968-3.832,4.245l-0.103,0.105
	c-0.208,0.516-0.413,0.932-0.726,1.243c-0.311,0.311-0.827,0.519-1.242,0.724l-0.103,0.105c-2.279,0.932-3.624,2.276-4.246,3.832
	l-2.589,1.137c0,0,0,0-0.103,0c0,0-0.105,0-0.105,0.105l-0.103,0.103l0,0l0,0c0,0.103,0,0.103,0,0.208c0,0.103,0,0.103,0,0.206l0,0
	l0,0c0,0,0,0.105,0.103,0.105c0,0,0.105,0,0.105,0.103c0,0,0,0,0.103,0l2.589,1.14c0.517,1.553,1.967,2.9,4.246,3.832l0.103,0.103
	c0.518,0.208,0.932,0.416,1.242,0.727c0.313,0.311,0.519,0.827,0.726,1.242l0.103,0.103c0.932,2.279,2.279,3.625,3.832,4.248
	l1.14,2.588c0,0.104,0.103,0.104,0.103,0.104l0,0l0.105,0.103l0,0l0,0c0.103,0,0.103,0,0.206,0c0.105,0,0.105,0,0.208,0l0,0l0,0
	c0,0,0.103,0,0.103-0.103l0,0l0.105-0.104l1.137-2.588c1.556-0.519,2.9-1.969,3.832-4.248l0.105-0.103
	c0.205-0.519,0.413-0.932,0.724-1.242s0.829-0.519,1.242-0.727l0.105-0.103c2.276-0.932,3.624-2.279,4.245-3.832l2.59-1.14l0,0
	c0,0,0.103,0,0.103-0.103l0,0l0.104-0.105l0,0C494.788,280.237,494.788,280.134,494.788,280.134z M491.163,279.615h-8.906v-0.103
	l4.764-1.969l4.04,1.761C491.163,279.407,491.163,279.513,491.163,279.615z M480.704,277.958L480.704,277.958l-0.103-8.907
	c0.103,0,0.205,0,0.311,0.105l1.761,4.038L480.704,277.958z M479.667,269.156v8.907h-0.103l-1.969-4.764l1.761-4.04
	C479.462,269.156,479.564,269.156,479.667,269.156z M478.011,279.513C478.011,279.615,478.011,279.615,478.011,279.513l-8.907,0.103
	c0-0.103,0-0.208,0.103-0.311l4.04-1.761L478.011,279.513z M469.105,280.547h8.907v0.103l-4.764,1.969l-4.04-1.761
	C469.208,280.858,469.105,280.755,469.105,280.547z M479.564,282.205C479.564,282.205,479.667,282.205,479.564,282.205l0.103,8.906
	c-0.103,0-0.205,0-0.311-0.104l-1.761-4.038L479.564,282.205z M480.601,291.112v-8.906h0.103l1.969,4.764l-1.761,4.038
	C480.912,291.112,480.704,291.112,480.601,291.112z M482.257,280.65L482.257,280.65l8.906-0.103c0,0.103,0,0.208-0.103,0.311
	l-4.04,1.761L482.257,280.65z M487.331,275.681c1.556,0.621,2.59,1.45,3.211,2.277l-3.313-1.345c-0.103,0-0.208,0-0.413,0
	l-4.248,1.761l3.419-3.419c0.413,0.311,0.829,0.416,1.242,0.621L487.331,275.681z M484.638,272.989v0.103
	c0.208,0.413,0.311,0.829,0.621,1.242l-3.416,3.419l1.761-4.248c0-0.103,0-0.205,0-0.413l-1.348-3.313
	C483.188,270.399,484.017,271.433,484.638,272.989z M475.732,272.989c0.621-1.556,1.45-2.59,2.279-3.211l-1.348,3.313
	c0,0.103,0,0.208,0,0.413l1.761,4.248l-3.417-3.419c0.311-0.413,0.414-0.829,0.622-1.242L475.732,272.989z M473.04,275.681
	l0.103-0.105c0.416-0.205,0.829-0.311,1.245-0.621l3.417,3.419l-4.245-1.761c-0.105,0-0.208,0-0.416,0l-3.313,1.345
	C470.45,277.026,471.487,276.302,473.04,275.681z M473.04,284.587c-1.553-0.621-2.59-1.45-3.211-2.279l3.313,1.348
	c0.105,0,0.105,0,0.208,0c0.103,0,0.103,0,0.208,0l4.245-1.761l-3.419,3.416c-0.413-0.311-0.826-0.413-1.242-0.621L473.04,284.587z
	 M475.732,287.28l-0.103-0.103c-0.208-0.416-0.311-0.829-0.622-1.245l3.417-3.416l-1.761,4.245c0,0.104,0,0.208,0,0.416l1.348,3.313
	C477.08,289.869,476.353,288.73,475.732,287.28z M484.638,287.28c-0.621,1.553-1.45,2.59-2.279,3.211l1.348-3.313
	c0-0.105,0-0.208,0-0.416l-1.761-4.245l3.419,3.416c-0.311,0.416-0.416,0.829-0.621,1.245L484.638,287.28z M487.331,284.587
	l-0.103,0.103c-0.413,0.208-0.829,0.311-1.242,0.621l-3.419-3.416l4.248,1.761c0.103,0,0.103,0,0.205,0c0.105,0,0.105,0,0.208,0
	l3.313-1.348C489.921,283.137,488.781,283.966,487.331,284.587z"/>
</svg>
