<?xml version="1.0" encoding="utf-8"?>
<!-- Generator: Adobe Illustrator 16.0.0, SVG Export Plug-In . SVG Version: 6.00 Build 0)  -->
<!DOCTYPE svg PUBLIC "-//W3C//DTD SVG 1.1//EN" "http://www.w3.org/Graphics/SVG/1.1/DTD/svg11.dtd">
<svg version="1.1" id="圖層_1" xmlns="http://www.w3.org/2000/svg" xmlns:xlink="http://www.w3.org/1999/xlink" x="0px" y="0px"
	 width="44.969px" height="50px" viewBox="0 0 44.969 50" enable-background="new 0 0 44.969 50" xml:space="preserve">
<path opacity="0.45" fill="#FFFFFF" enable-background="new    " d="M20.364,10.04c-8.801,0.627-15.45,8.296-14.823,17.097
	s8.296,15.449,17.098,14.823c8.801-0.627,15.448-8.297,14.821-17.097C36.832,16.063,29.163,9.414,20.364,10.04z M26.497,26.589
	l-6.177,7.124c-0.24,0.277-0.571,0.432-0.912,0.456c-0.34,0.024-0.691-0.082-0.969-0.321c-0.558-0.484-0.616-1.324-0.134-1.882
	l5.304-6.116l-6.116-5.303c-0.558-0.484-0.617-1.323-0.134-1.881c0.482-0.557,1.323-0.616,1.88-0.134l7.124,6.177
	C26.92,25.191,26.98,26.031,26.497,26.589z"/>
</svg>
