<?xml version="1.0" encoding="iso-8859-1"?>
<!-- Generator: Adobe Illustrator 16.0.0, SVG Export Plug-In . SVG Version: 6.00 Build 0)  -->
<!DOCTYPE svg PUBLIC "-//W3C//DTD SVG 1.1//EN" "http://www.w3.org/Graphics/SVG/1.1/DTD/svg11.dtd">
<svg version="1.1" xmlns="http://www.w3.org/2000/svg" xmlns:xlink="http://www.w3.org/1999/xlink" x="0px" y="0px" width="250px"
	 height="249.999px" viewBox="0 0 250 249.999" style="enable-background:new 0 0 250 249.999;" xml:space="preserve">
<g id="&#x80CC;&#x666F;_xA0_&#x5F71;&#x50CF;_1_" style="display:none;">
	
		<image style="display:inline;overflow:visible;" width="191" height="58" id="&#x80CC;&#x666F;_xA0_&#x5F71;&#x50CF;" xlink:href="A70F19D2.jpg"  transform="matrix(1.3079 0 0 1.3079 -866.106 -188.7261)">
	</image>
	
		<image style="display:inline;overflow:visible;" width="191" height="58" id="&#x80CC;&#x666F;_xA0_&#x5F71;&#x50CF;_2_" xlink:href="A70F19D6.jpg"  transform="matrix(1.3079 0 0 1.3079 -866.106 -280.0601)">
	</image>
	
		<image style="display:inline;overflow:visible;" width="191" height="58" id="&#x80CC;&#x666F;_xA0_&#x5F71;&#x50CF;_3_" xlink:href="A70F19D1.jpg"  transform="matrix(1.3079 0 0 1.3079 -866.106 -96.0596)">
	</image>
	
		<image style="display:inline;overflow:visible;" width="191" height="58" id="&#x80CC;&#x666F;_xA0_&#x5F71;&#x50CF;_4_" xlink:href="A70F19D3.jpg"  transform="matrix(1.3079 0 0 1.3079 -866.106 -0.0596)">
	</image>
	
		<image style="display:inline;overflow:visible;" width="191" height="58" id="&#x80CC;&#x666F;_xA0_&#x5F71;&#x50CF;_5_" xlink:href="A70F19D0.jpg"  transform="matrix(1.3079 0 0 1.3079 -866.106 95.9404)">
	</image>
	
		<image style="display:inline;overflow:visible;" width="191" height="58" id="&#x80CC;&#x666F;_xA0_&#x5F71;&#x50CF;_6_" xlink:href="A70F19DE.jpg"  transform="matrix(1.3079 0 0 1.3079 -866.106 192.6074)">
	</image>
</g>
<g id="&#x65C5;&#x96AA;_1_">
	<g id="&#x7FA4;&#x7D44;_2_1_">
	</g>
	<g id="&#x7F8E;&#x5546;&#x5B89;&#x9054;&#x65C5;&#x96AA;">
	</g>
</g>
<g id="&#x5F71;&#x50CF;_xA0_23_1_">
	<g id="&#x611B;_&#x5FC3;_&#x6350;_&#x8D08;">
	</g>
</g>
<g id="&#x5F71;&#x50CF;_xA0_33_1_">
	<g id="&#x65C5;_&#x904A;_&#x8B1B;_&#x5EA7;">
	</g>
</g>
<g id="&#x5F71;&#x50CF;_xA0_43_1_">
	<g id="&#x5F71;&#x50CF;_xA0_36_xA0_&#x5F71;&#x50CF;_1_" style="display:none;">
		
			<image style="display:inline;overflow:visible;" width="52" height="52" id="&#x5F71;&#x50CF;_xA0_36_xA0_&#x5F71;&#x50CF;" xlink:href="A70F19DE.png"  transform="matrix(1 0 0 1 -831.8047 -176.667)">
		</image>
	</g>
	<g id="&#x5BEB;&#x597D;&#x6587;A&#x597D;&#x5EB7;">
	</g>
</g>
<g id="&#x5F71;&#x50CF;_xA0_63_1_">
	<g id="&#x5F71;&#x50CF;_xA0_46_xA0_&#x5F71;&#x50CF;_1_" style="display:none;">
		
			<image style="display:inline;overflow:visible;" width="52" height="52" id="&#x5F71;&#x50CF;_xA0_46_xA0_&#x5F71;&#x50CF;" xlink:href="A70F19D2.png"  transform="matrix(1 0 0 1 -831.8047 -176.667)">
		</image>
	</g>
	<g id="&#x7FA4;&#x7D44;_5_1_">
	</g>
	<g id="&#x4FE1;&#x7528;&#x5361;&#x512A;&#x60E0;">
	</g>
</g>
<g id="&#x5F71;&#x50CF;_xA0_71_1_">
	<g id="&#x5178;_&#x85CF;_&#x65C5;_&#x904A;">
	</g>
	<g>
		<g id="&#x6A62;&#x5713;_1_&#x62F7;&#x8C9D;_9_3_">
			<path style="fill:#13B5B1;" d="M125.296,1.555c-68.033,0-123.18,55.525-123.18,124.02c0,68.487,55.146,124.013,123.18,124.013
				c68.025,0,123.176-55.525,123.176-124.013C248.472,57.08,193.321,1.555,125.296,1.555z"/>
		</g>
		<g id="&#x5713;&#x89D2;&#x77E9;&#x5F62;_1_3_">
			<g>
				<path style="fill:#00A0E9;" d="M175.09,49.053h-73.597L65.014,85.709v105.828c0,5.829,4.691,10.552,10.484,10.552h99.592
					c5.789,0,10.484-4.723,10.484-10.552V59.604C185.574,53.776,180.879,49.053,175.09,49.053z"/>
			</g>
			<g>
				<path style="fill:none;stroke:#FFFFFF;stroke-width:5;stroke-miterlimit:10;" d="M175.09,49.053h-73.597L65.014,85.709v105.828
					c0,5.829,4.691,10.552,10.484,10.552h99.592c5.789,0,10.484-4.723,10.484-10.552V59.604
					C185.574,53.776,180.879,49.053,175.09,49.053z"/>
			</g>
		</g>
		<g id="&#x591A;&#x908A;&#x5F62;_1_3_">
			<g>
				<polygon style="fill:#00A0E9;" points="68.768,82.21 98.384,82.21 98.384,52.398 				"/>
			</g>
			<g>
				<polygon style="fill:none;stroke:#FFFFFF;stroke-width:5;stroke-miterlimit:10;" points="68.768,82.21 98.384,82.21 
					98.384,52.398 				"/>
			</g>
		</g>
		<g id="&#x77E9;&#x5F62;_2_3_">
			<rect x="91.222" y="112.383" style="fill:#FFFFFF;" width="73.385" height="10.552"/>
		</g>
		<g id="&#x77E9;&#x5F62;_2_&#x62F7;&#x8C9D;_2_3_">
			<rect x="91.222" y="138.768" style="fill:#FFFFFF;" width="73.385" height="10.552"/>
		</g>
		<g id="&#x77E9;&#x5F62;_2_&#x62F7;&#x8C9D;_4_3_">
			<rect x="91.222" y="165.152" style="fill:#FFFFFF;" width="41.937" height="10.552"/>
		</g>
	</g>
</g>
</svg>
