<?xml version="1.0" encoding="iso-8859-1"?>
<!-- Generator: Adobe Illustrator 16.0.0, SVG Export Plug-In . SVG Version: 6.00 Build 0)  -->
<!DOCTYPE svg PUBLIC "-//W3C//DTD SVG 1.1//EN" "http://www.w3.org/Graphics/SVG/1.1/DTD/svg11.dtd">
<svg version="1.1" xmlns="http://www.w3.org/2000/svg" xmlns:xlink="http://www.w3.org/1999/xlink" x="0px" y="0px" width="250px"
	 height="76px" viewBox="0 0 250 76" style="enable-background:new 0 0 250 76;" xml:space="preserve">
<g id="&#x80CC;&#x666F;_xA0_&#x5F71;&#x50CF;_1_" style="display:none;">
	
		<image style="display:inline;overflow:visible;" width="191" height="58" id="&#x80CC;&#x666F;_xA0_&#x5F71;&#x50CF;" xlink:href="5EFF38B5.jpg"  transform="matrix(1.3079 0 0 1.3079 0.1987 -0.0591)">
	</image>
	
		<image style="display:inline;overflow:visible;" width="191" height="58" id="&#x80CC;&#x666F;_xA0_&#x5F71;&#x50CF;_2_" xlink:href="5EFF38B7.jpg"  transform="matrix(1.3079 0 0 1.3079 0.1987 -91.3931)">
	</image>
	
		<image style="display:inline;overflow:visible;" width="191" height="58" id="&#x80CC;&#x666F;_xA0_&#x5F71;&#x50CF;_3_" xlink:href="5EFF38B2.jpg"  transform="matrix(1.3079 0 0 1.3079 0.1987 92.6074)">
	</image>
	
		<image style="display:inline;overflow:visible;" width="191" height="58" id="&#x80CC;&#x666F;_xA0_&#x5F71;&#x50CF;_4_" xlink:href="5EFF38B3.jpg"  transform="matrix(1.3079 0 0 1.3079 0.1987 188.6074)">
	</image>
	
		<image style="display:inline;overflow:visible;" width="191" height="58" id="&#x80CC;&#x666F;_xA0_&#x5F71;&#x50CF;_5_" xlink:href="5EFF38BD.jpg"  transform="matrix(1.3079 0 0 1.3079 0.1987 284.6074)">
	</image>
	
		<image style="display:inline;overflow:visible;" width="191" height="58" id="&#x80CC;&#x666F;_xA0_&#x5F71;&#x50CF;_6_" xlink:href="5EFF38BF.jpg"  transform="matrix(1.3079 0 0 1.3079 0.1987 381.2744)">
	</image>
</g>
<g id="&#x65C5;&#x96AA;_1_">
	<g id="&#x7FA4;&#x7D44;_2_1_">
	</g>
	<g id="&#x7F8E;&#x5546;&#x5B89;&#x9054;&#x65C5;&#x96AA;">
	</g>
</g>
<g id="&#x5F71;&#x50CF;_xA0_23_1_">
	<g id="&#x611B;_&#x5FC3;_&#x6350;_&#x8D08;">
	</g>
</g>
<g id="&#x5F71;&#x50CF;_xA0_33_1_">
	<g id="&#x65C5;_&#x904A;_&#x8B1B;_&#x5EA7;">
	</g>
</g>
<g id="&#x5F71;&#x50CF;_xA0_43_1_">
	<g id="&#x5F71;&#x50CF;_xA0_36_xA0_&#x5F71;&#x50CF;_1_" style="display:none;">
		
			<image style="display:inline;overflow:visible;" width="52" height="52" id="&#x5F71;&#x50CF;_xA0_36_xA0_&#x5F71;&#x50CF;" xlink:href="5EFF38BD.png"  transform="matrix(1 0 0 1 34.5 12)">
		</image>
	</g>
	<g id="&#x5BEB;&#x597D;&#x6587;A&#x597D;&#x5EB7;">
	</g>
</g>
<g id="&#x5F71;&#x50CF;_xA0_63_1_">
	<g id="&#x6A62;&#x5713;_1_&#x62F7;&#x8C9D;_4">
		<g>
			<ellipse style="fill:#AA89BD;" cx="40.65" cy="37.808" rx="33.354" ry="33.581"/>
		</g>
	</g>
	<g id="&#x5F71;&#x50CF;_xA0_46_xA0_&#x5F71;&#x50CF;_1_" style="display:none;">
		
			<image style="display:inline;overflow:visible;" width="52" height="52" id="&#x5F71;&#x50CF;_xA0_46_xA0_&#x5F71;&#x50CF;" xlink:href="5EFF38B3.png"  transform="matrix(1 0 0 1 34.5 12)">
		</image>
	</g>
	<g id="&#x7FA4;&#x7D44;_5_1_">
		<g id="&#x5713;&#x89D2;&#x77E9;&#x5F62;_5">
			<g>
				<path style="fill:#AE5DA1;" d="M69.453,46.192l-9.064-22.513c-0.589-1.464-2.244-2.169-3.698-1.575l-36.83,15.03
					c-1.453,0.592-2.154,2.259-1.564,3.722l9.064,22.513c0.589,1.463,2.244,2.167,3.697,1.575l36.831-15.03
					C69.341,49.321,70.042,47.654,69.453,46.192z"/>
			</g>
			<g>
				<path style="fill:none;stroke:#FFFFFF;stroke-miterlimit:10;" d="M69.453,46.192l-9.064-22.513
					c-0.589-1.464-2.244-2.169-3.698-1.575l-36.83,15.03c-1.453,0.592-2.154,2.259-1.564,3.722l9.064,22.513
					c0.589,1.463,2.244,2.167,3.697,1.575l36.831-15.03C69.341,49.321,70.042,47.654,69.453,46.192z"/>
			</g>
		</g>
		<g id="&#x77E9;&#x5F62;_7">
			<g>
				<polygon style="fill:#FFFFFF;" points="47.884,38.803 25.266,47.265 27.738,53.962 50.355,45.5 				"/>
			</g>
		</g>
		<g id="&#x77E9;&#x5F62;_6">
			<g>
				<polygon style="fill:#FFFFFF;" points="65.155,44.007 29.791,58.87 30.337,60.188 65.702,45.326 				"/>
			</g>
		</g>
		<g id="&#x5713;&#x89D2;&#x77E9;&#x5F62;_5_&#x62F7;&#x8C9D;">
			<g>
				<path style="fill:#EA68A2;" d="M59.811,17.089H20.069c-1.567,0-2.838,1.279-2.838,2.857v24.292c0,1.579,1.271,2.858,2.838,2.858
					h39.741c1.568,0,2.839-1.279,2.839-2.858V19.946C62.649,18.368,61.378,17.089,59.811,17.089z"/>
			</g>
			<g>
				<path style="fill:none;stroke:#FFFFFF;stroke-miterlimit:10;" d="M59.811,17.089H20.069c-1.567,0-2.838,1.279-2.838,2.857
					v24.292c0,1.579,1.271,2.858,2.838,2.858h39.741c1.568,0,2.839-1.279,2.839-2.858V19.946
					C62.649,18.368,61.378,17.089,59.811,17.089z"/>
			</g>
		</g>
		<g id="&#x6A62;&#x5713;_1">
			<g>
				<ellipse style="fill:#FFFFFF;" cx="25.037" cy="27.805" rx="3.549" ry="3.573"/>
			</g>
		</g>
		<g id="&#x5713;&#x89D2;&#x77E9;&#x5F62;_6">
			<g>
				<path style="fill:#FFFFFF;" d="M54.133,21.375h-5.677c-2.352,0-4.258,1.919-4.258,4.288c0,2.367,1.906,4.286,4.258,4.286h5.677
					c2.352,0,4.257-1.919,4.257-4.286C58.391,23.294,56.485,21.375,54.133,21.375z"/>
			</g>
		</g>
		<g id="&#x77E9;&#x5F62;_5">
			<g>
				<rect x="20.069" y="35.664" style="fill:#FFFFFF;" width="8.516" height="1.43"/>
			</g>
		</g>
		<g id="&#x77E9;&#x5F62;_5_&#x62F7;&#x8C9D;_4">
			<g>
				<rect x="21.488" y="41.381" style="fill:#FFFFFF;" width="8.516" height="1.429"/>
			</g>
		</g>
		<g id="&#x77E9;&#x5F62;_5_&#x62F7;&#x8C9D;_5">
			<g>
				<rect x="31.424" y="41.381" style="fill:#FFFFFF;" width="7.097" height="1.429"/>
			</g>
		</g>
		<g id="&#x77E9;&#x5F62;_5_&#x62F7;&#x8C9D;_6">
			<g>
				<rect x="39.939" y="41.381" style="fill:#FFFFFF;" width="7.097" height="1.429"/>
			</g>
		</g>
		<g id="&#x77E9;&#x5F62;_5_&#x62F7;&#x8C9D;">
			<g>
				<rect x="30.004" y="35.664" style="fill:#FFFFFF;" width="8.516" height="1.43"/>
			</g>
		</g>
		<g id="&#x77E9;&#x5F62;_5_&#x62F7;&#x8C9D;_2">
			<g>
				<rect x="39.939" y="35.664" style="fill:#FFFFFF;" width="8.517" height="1.43"/>
			</g>
		</g>
		<g id="&#x77E9;&#x5F62;_5_&#x62F7;&#x8C9D;_3">
			<g>
				<rect x="49.875" y="35.664" style="fill:#FFFFFF;" width="8.516" height="1.43"/>
			</g>
		</g>
	</g>
	<g id="&#x4FE1;&#x7528;&#x5361;&#x512A;&#x60E0;">
		<g>
			<path style="fill:#333333;" d="M92.881,49.282h-2.657V34.464c-0.945,1.158-1.558,1.827-2.171,2.47l-1.022-0.823
				c3.78-4.245,5.186-9.93,5.262-10.934l2.758,0.926c0.128,0.051,0.205,0.154,0.205,0.257c0,0.18-0.255,0.386-0.383,0.489
				c-0.383,0.849-0.971,2.084-1.992,3.808V49.282z M111.298,31.3H94.261v-1.158h17.037V31.3z M98.424,47.996v1.286h-2.605V41.23
				h13.691v8.052h-2.605v-1.286H98.424z M109.586,35.056H95.921v-1.132h13.666V35.056z M109.586,38.657H95.921V37.5h13.666V38.657z
				 M109.152,27.621H96.381v-1.158h12.771V27.621z M106.904,46.864v-4.502h-8.48v4.502H106.904z"/>
			<path style="fill:#333333;" d="M132.096,48.536h-2.656v-7.537h-6.233c-0.281,1.929-0.945,4.553-3.857,8.026l-1.021-0.669
				c1.89-2.805,2.503-5.402,2.503-11.268V26.541h20.18v19.989c0,2.136-0.588,2.625-2.861,2.625h-3.142l-0.639-1.313
				c0.511,0.077,1.149,0.206,2.478,0.206c1.456,0,1.532-0.129,1.532-1.286v-5.763h-6.283V48.536z M129.439,34.335h-5.901v1.827
				c0,1.235-0.077,2.47-0.204,3.679h6.105V34.335z M129.439,27.698h-5.901v5.479h5.901V27.698z M132.096,33.178h6.283v-5.479h-6.283
				V33.178z M132.096,39.841h6.283v-5.505h-6.283V39.841z"/>
			<path style="fill:#333333;" d="M171.106,29.113v1.132H162.6v4.579h11.035v1.158H162.6v2.392c3.449,0.721,8.532,3.268,9.094,3.603
				l-1.481,2.495c-2.708-2.495-6.207-4.193-7.612-4.683v9.339h-2.707V35.982h-9.732v-1.158h9.732v-7.949c0-0.18,0-0.823-0.179-1.518
				l2.759,0.103c0.102,0,0.383,0.077,0.383,0.257c0,0.103-0.025,0.154-0.256,0.463v2.933H171.106z"/>
			<path style="fill:#333333;" d="M185.799,49.18h-2.504V34.85c-0.894,1.209-1.455,1.852-1.967,2.393l-0.919-0.849
				c1.763-2.315,4.547-7.847,4.93-11.217l2.528,0.721c0.128,0.025,0.256,0.154,0.256,0.257c0,0.154-0.103,0.283-0.281,0.463
				c-0.843,2.058-1.507,3.37-2.043,4.348V49.18z M201.865,29.087v6.303h2.452v3.139h-2.248v-2.059h-12.822v1.955
				c0.179-0.334,0.255-0.437,0.357-0.72l1.2,0.514c-0.332,1.029-0.996,2.547-1.864,3.73l-1.737-1.003
				c0.664-0.644,1.354-1.338,1.993-2.418h-2.172V35.39h2.555v-6.303h3.831c0.256-0.489,0.485-1.029,0.69-1.569h-5.441v-1.106h15.429
				v1.106h-7.178c-0.384,0.54-0.767,1.055-1.149,1.569H201.865z M204.624,49.18c-2.171-0.181-5.747-0.592-8.813-2.032
				c-2.988,1.415-5.85,1.826-7.816,2.032l-0.792-1.106c2.172-0.309,4.496-0.721,6.871-1.878c-0.664-0.463-1.532-1.055-2.324-2.187
				c-1.532,0.926-2.554,1.363-3.346,1.672l-0.817-0.978c2.86-1.106,4.598-3.216,5.006-3.781c-0.843-0.181-0.843-0.901-0.843-1.441
				v-1.389c0-0.36,0-0.515-0.051-1.003l2.068,0.103c0.103,0,0.205,0.077,0.205,0.206c0,0.18-0.103,0.386-0.179,0.566v1.286
				c0,0.592,0.153,0.617,0.689,0.617h2.401c0.817,0,0.944-0.231,1.328-1.749c0.587,0.36,1.175,0.592,1.762,0.798
				c-0.664,2.032-1.2,2.032-2.452,2.032h-1.967c-0.28,0.283-1.072,1.029-1.532,1.44h6.999v1.029
				c-0.435,0.463-1.481,1.569-3.576,2.83c3.167,1.389,6.871,1.724,7.663,1.801L204.624,49.18z M199.413,31.171v-1.003h-7.382v1.003
				H199.413z M199.413,33.281V32.2h-7.382v1.081H199.413z M199.413,35.39V34.31h-7.382v1.081H199.413z M193.717,43.494
				c0.536,0.721,1.149,1.209,1.967,1.775c1.252-0.85,1.737-1.467,1.992-1.775H193.717z M196.067,39.558
				c-0.358-0.669-1.124-1.646-1.533-2.135l0.895-0.772c0.357,0.231,1.328,0.849,2.273,1.698L196.067,39.558z M202.351,42.027
				c-0.46-1.184-1.175-2.495-1.941-3.524l0.817-0.669c1.252,1.106,1.891,1.75,2.784,2.933L202.351,42.027z"/>
			<path style="fill:#333333;" d="M222.868,38.323h-7.127v-7.77h7.127v-1.775H212.37v-1.157h10.498V26.9
				c0-0.437-0.051-0.797-0.153-1.595l2.733,0.154c0.204,0,0.28,0.128,0.28,0.283c0,0.18-0.076,0.36-0.28,0.721v1.158h10.473v1.157
				h-10.473v1.775h7.203v7.77h-1.073c0.409,0.283,2.299,1.492,3.883,3.241l-2.273,1.801c-0.511-0.978-0.895-1.595-1.456-2.341
				c-7.842,0.669-8.762,0.746-16.909,1.338c-0.741,0.283-0.817,0.309-0.996,0.309c-0.153,0-0.332-0.181-0.358-0.309l-0.511-1.93
				c0.537,0.052,1.021,0.103,1.584,0.103c0.46,0,6.896-0.205,8.327-0.282V38.323z M212.625,47.919
				c1.048-1.003,2.273-2.855,3.04-4.76l1.175,0.412c-0.281,1.492-0.843,3.808-1.609,5.557L212.625,47.919z M222.868,31.711h-4.496
				v2.032h4.496V31.711z M222.868,34.875h-4.496v2.315h4.496V34.875z M221.183,42.928c0.152,0.026,0.28,0.181,0.28,0.309
				c0,0.104-0.229,0.566-0.28,0.669v2.444c0,0.798,0,1.621,1.583,1.621h3.244c1.405,0,1.763-0.489,2.171-2.855
				c0.69,0.359,0.945,0.437,2.351,0.874c-0.843,2.805-1.66,3.113-3.5,3.113h-6.155c-1.328,0-2.248-0.104-2.248-1.904v-3.293
				c0-0.565-0.077-0.951-0.128-1.26L221.183,42.928z M224.886,46.839c-0.307-1.235-1.379-3.345-1.967-4.245l0.945-0.694
				c1.2,0.874,2.835,2.47,3.346,3.138L224.886,46.839z M225.448,33.744h4.546v-2.032h-4.546V33.744z M225.448,37.191h4.546v-2.315
				h-4.546V37.191z M225.448,40.149l5.39-0.231c-0.23-0.283-0.332-0.386-1.022-1.157l0.485-0.438h-4.853V40.149z M233.392,48.999
				c-0.766-2.752-2.299-5.145-2.605-5.608l0.945-0.745c2.223,1.774,3.652,3.781,4.138,4.425L233.392,48.999z"/>
		</g>
	</g>
</g>
<g id="&#x5F71;&#x50CF;_xA0_71_1_">
	<g id="&#x5178;_&#x85CF;_&#x65C5;_&#x904A;">
	</g>
</g>
</svg>
