<?xml version="1.0" encoding="iso-8859-1"?>
<!-- Generator: Adobe Illustrator 16.0.0, SVG Export Plug-In . SVG Version: 6.00 Build 0)  -->
<!DOCTYPE svg PUBLIC "-//W3C//DTD SVG 1.1//EN" "http://www.w3.org/Graphics/SVG/1.1/DTD/svg11.dtd">
<svg version="1.1" xmlns="http://www.w3.org/2000/svg" xmlns:xlink="http://www.w3.org/1999/xlink" x="0px" y="0px" width="250px"
	 height="76px" viewBox="0 0 250 76" style="enable-background:new 0 0 250 76;" xml:space="preserve">
<g id="&#x80CC;&#x666F;_xA0_&#x5F71;&#x50CF;_1_" style="display:none;">
	
		<image style="display:inline;overflow:visible;" width="191" height="58" id="&#x80CC;&#x666F;_xA0_&#x5F71;&#x50CF;" xlink:href="E2FE8059.jpg"  transform="matrix(1.3079 0 0 1.3079 0.1987 91.2744)">
	</image>
	
		<image style="display:inline;overflow:visible;" width="191" height="58" id="&#x80CC;&#x666F;_xA0_&#x5F71;&#x50CF;_2_" xlink:href="E2FE805B.jpg"  transform="matrix(1.3079 0 0 1.3079 0.1987 -0.0596)">
	</image>
	
		<image style="display:inline;overflow:visible;" width="191" height="58" id="&#x80CC;&#x666F;_xA0_&#x5F71;&#x50CF;_3_" xlink:href="E2FE805E.jpg"  transform="matrix(1.3079 0 0 1.3079 0.1987 183.9409)">
	</image>
	
		<image style="display:inline;overflow:visible;" width="191" height="58" id="&#x80CC;&#x666F;_xA0_&#x5F71;&#x50CF;_4_" xlink:href="E2FE805F.jpg"  transform="matrix(1.3079 0 0 1.3079 0.1987 279.9409)">
	</image>
	
		<image style="display:inline;overflow:visible;" width="191" height="58" id="&#x80CC;&#x666F;_xA0_&#x5F71;&#x50CF;_5_" xlink:href="E2FE805A.jpg"  transform="matrix(1.3079 0 0 1.3079 0.1987 375.9409)">
	</image>
	
		<image style="display:inline;overflow:visible;" width="191" height="58" id="&#x80CC;&#x666F;_xA0_&#x5F71;&#x50CF;_6_" xlink:href="E2FE8055.jpg"  transform="matrix(1.3079 0 0 1.3079 0.1987 472.6079)">
	</image>
</g>
<g id="&#x65C5;&#x96AA;_1_">
	<g id="&#x7FA4;&#x7D44;_2_1_">
	</g>
	<g id="&#x7F8E;&#x5546;&#x5B89;&#x9054;&#x65C5;&#x96AA;">
	</g>
</g>
<g id="&#x5F71;&#x50CF;_xA0_23_1_">
	<g id="&#x611B;_&#x5FC3;_&#x6350;_&#x8D08;">
	</g>
</g>
<g id="&#x5F71;&#x50CF;_xA0_33_1_">
	<g id="&#x65C5;_&#x904A;_&#x8B1B;_&#x5EA7;">
	</g>
</g>
<g id="&#x5F71;&#x50CF;_xA0_43_1_">
	<g id="&#x5F71;&#x50CF;_xA0_36_xA0_&#x5F71;&#x50CF;_1_" style="display:none;">
		
			<image style="display:inline;overflow:visible;" width="52" height="52" id="&#x5F71;&#x50CF;_xA0_36_xA0_&#x5F71;&#x50CF;" xlink:href="E2FE8059.png"  transform="matrix(1 0 0 1 34.5 103.3335)">
		</image>
	</g>
	<g id="&#x5BEB;&#x597D;&#x6587;A&#x597D;&#x5EB7;">
	</g>
</g>
<g id="&#x5F71;&#x50CF;_xA0_63_1_">
	<g id="&#x5F71;&#x50CF;_xA0_46_xA0_&#x5F71;&#x50CF;_1_" style="display:none;">
		
			<image style="display:inline;overflow:visible;" width="52" height="52" id="&#x5F71;&#x50CF;_xA0_46_xA0_&#x5F71;&#x50CF;" xlink:href="E2FE8057.png"  transform="matrix(1 0 0 1 34.5 103.3335)">
		</image>
	</g>
	<g id="&#x7FA4;&#x7D44;_5_1_">
	</g>
	<g id="&#x4FE1;&#x7528;&#x5361;&#x512A;&#x60E0;">
	</g>
</g>
<g id="&#x5F71;&#x50CF;_xA0_71_1_">
	<g id="&#x5178;_&#x85CF;_&#x65C5;_&#x904A;">
	</g>
	<g id="&#x6A62;&#x5713;_1_&#x62F7;&#x8C9D;_5">
		<g>
			<ellipse style="fill:#D2D2D2;" cx="40.65" cy="37.808" rx="33.354" ry="33.581"/>
		</g>
	</g>
	<g>
		<path style="fill:#333333;" d="M95.931,44.523c0.153,0.103,0.255,0.205,0.255,0.309c0,0.205-0.229,0.257-0.664,0.334
			c-3.193,2.213-5.262,3.216-8.557,4.143l-0.843-1.081c3.346-1.106,6.335-3.396,7.408-5.351L95.931,44.523z M109.903,41.307v1.132
			H86.353v-1.132h2.325V28.572h5.415v-1.75c0-0.386-0.051-1.106-0.153-1.492l2.631,0.077c0.179,0,0.307,0.026,0.307,0.18
			s-0.102,0.386-0.179,0.541v2.444h2.81v-1.595c0-0.823-0.051-1.158-0.127-1.646l2.656,0.077c0.102,0,0.281,0.026,0.281,0.18
			c0,0.129-0.103,0.309-0.23,0.541v2.444h5.466v12.735H109.903z M94.092,34.824v-5.12h-2.784v5.12H94.092z M94.092,41.307v-5.326
			h-2.784v5.326H94.092z M99.507,34.824v-5.12h-2.81v5.12H99.507z M99.507,41.307v-5.326h-2.81v5.326H99.507z M102.828,42.748
			c2.018,2.649,4.674,4.45,7.152,5.428l-0.766,1.158c-4.649-1.261-7.714-3.833-8.736-4.733L102.828,42.748z M104.922,34.824v-5.12
			h-2.835v5.12H104.922z M104.922,41.307v-5.326h-2.835v5.326H104.922z"/>
		<path style="fill:#333333;" d="M150.524,36.521c0.205,0.103,0.307,0.18,0.307,0.309c0,0.231-0.332,0.617-0.587,0.875
			c-0.92,2.187-1.481,3.499-2.81,5.403c0.332,0.926,1.226,3.447,1.736,3.447c0.357,0,0.664-1.492,0.817-2.29
			c0.716,0.798,1.252,1.106,1.788,1.363c-0.408,1.313-1.099,3.499-2.759,3.499c-1.686,0-2.886-2.83-3.32-3.808
			c-1.916,2.188-4.036,3.37-5.211,4.014l-0.92-0.952c0.844-0.515,2.273-1.415,3.551-2.701h-7.586V35.596h7.586v1.132h-2.171v1.852
			h2.196v4.039h-2.196v1.904h2.171v1.132c1.149-1.184,1.66-1.955,1.865-2.29c-0.92-3.062-1.201-6.303-1.277-9.519h-8.838v3.576
			c0,6.071-1.38,9.235-4.624,11.886l-1.072-0.798c2.146-2.393,2.835-4.425,3.142-8.026h-1.124c-0.102,2.572-0.767,3.962-2.375,5.428
			l-0.92-0.849c0.767-0.978,1.328-1.93,1.405-4.579h-1.048v-1.158h4.112c0.025-0.231,0-0.592,0-0.875v-1.44h-3.602v-4.116
			c0-0.36-0.076-0.875-0.179-1.234l1.992,0.051c0.128,0,0.435,0,0.435,0.257c0,0.077-0.128,0.437-0.204,0.643v3.267h1.558v-3.164
			h11.316c0-1.132,0-1.415-0.077-1.956h-1.456v-2.006h-4.648v2.006h-2.631v-2.006h-6.744v-1.132h6.744v-0.746
			c0-0.489-0.077-1.081-0.179-1.544l2.528,0.129c0.103,0,0.511,0.025,0.511,0.309c0,0.129-0.153,0.566-0.229,0.72v1.132h4.648V26.9
			c0-0.154,0-1.003-0.153-1.569l2.631,0.129c0.23,0,0.435,0.103,0.435,0.334c0,0.154-0.076,0.309-0.281,0.669v1.158h6.846v1.132
			h-6.846v1.569l0.996,0.077c0.23,0.025,0.512,0.103,0.512,0.386c0,0.154-0.18,0.823-0.18,0.978
			c-0.025,0.669-0.025,0.746-0.025,0.952h2.58c-0.435-0.9-1.252-1.981-2.196-2.881l1.072-0.849c0.511,0.334,1.073,0.695,2.988,2.444
			l-1.583,1.287h2.12v1.132h-4.981c0.077,3.293,0.307,4.991,0.588,6.457c0.664-1.466,1.328-3.19,1.558-4.888L150.524,36.521z
			 M139.03,38.58v-1.852h-1.584v1.852H139.03z M137.446,39.711v1.775h3.551v-1.775H137.446z M137.446,42.619v1.904h1.584v-1.904
			H137.446z"/>
		<path style="fill:#333333;" d="M174.594,31.454v3.653h4.7c-0.051,12.632-0.408,13.866-3.78,13.866h-2.223l-0.511-1.363
			c0.792,0.206,1.508,0.206,1.712,0.206c1.558,0,1.711-0.721,1.89-1.75c0.256-1.44,0.409-6.071,0.384-9.827h-2.197
			c-0.102,6.174-1.507,9.956-4.342,12.812l-0.996-0.823c2.35-3.164,2.835-6.097,2.835-12.631v-4.142h-2.35v-1.158h4.035v-3.319
			c0-0.283-0.051-1.158-0.076-1.44l2.631,0.077c0.103,0,0.204,0.077,0.204,0.206c0,0.155-0.128,0.412-0.204,0.566v3.91h3.652v1.158
			H174.594z M183.483,30.296c-1.686,2.753-2.988,4.116-3.551,4.708l-1.226-0.592c1.967-2.418,3.576-6.045,4.138-9.236l2.912,0.721
			c0.076,0.025,0.229,0.128,0.229,0.283c0,0.257-0.332,0.36-0.46,0.412c-0.715,1.441-1.072,2.084-1.354,2.573h9.145v1.132H183.483z
			 M192.576,49.102c-4.521-3.293-6.309-8.284-6.896-13.224c-0.229,0.231-0.511,0.489-0.792,0.772v12.554h-2.528V39.017
			c-0.817,0.721-1.277,1.08-1.813,1.518l-1.048-0.951c3.96-3.576,6.207-7.744,6.488-8.387l2.503,1.287
			c0.077,0.025,0.18,0.128,0.18,0.257c0,0.232-0.18,0.334-0.613,0.515c-0.409,0.515-0.971,1.184-2.376,2.599l2.683,0.025
			c0.025,0.772,0.051,1.544,0.307,3.087c1.251-1.26,2.554-3.344,2.938-4.167l1.787,1.75c0.052,0.052,0.103,0.129,0.103,0.206
			c0,0.128-0.128,0.309-0.435,0.386c-1.149,1.106-2.35,2.136-4.061,3.345c0.511,2.135,1.864,5.402,4.572,7.666L192.576,49.102z"/>
		<path style="fill:#333333;" d="M216.492,36.47v7.563c0.536,3.216,3.218,3.422,6.487,3.422h4.343c2.171,0,6.232-0.077,8.046-0.309
			l-0.332,1.466h-12.721c-3.295,0-5.722,0-7.306-2.393c-0.664,0.721-1.736,1.827-2.4,2.521c-0.077,0.412-0.153,0.566-0.332,0.566
			c-0.077,0-0.179-0.052-0.23-0.154l-1.098-2.007c0.843-0.335,1.558-0.85,2.988-2.007v-7.512h-2.427V36.47H216.492z M214.576,33.332
			c-0.332-1.569-1.073-3.37-3.142-6.792l0.944-0.849c1.941,1.904,3.653,4.271,4.521,5.583L214.576,33.332z M221.422,33.846h3.755
			c0,2.496-0.052,9.03-0.869,10.728c-0.485,0.978-1.021,1.235-2.324,1.235h-1.89l-0.358-1.338c0.409,0.077,0.945,0.154,1.609,0.154
			c0.409,0,0.895,0,1.099-0.875c0.485-1.955,0.511-5.273,0.562-8.747h-1.583c-0.052,2.315-0.128,6.354-3.372,10.445l-1.099-0.694
			c2.12-3.345,2.12-6.689,2.12-10.471v-3.756h-1.941V29.37h2.964v-2.495c0-0.412-0.077-0.849-0.18-1.338l2.325,0.026
			c0.179,0,0.332,0.025,0.332,0.257c0,0.078-0.025,0.283-0.077,0.489v3.062h2.683v1.158h-3.755V33.846z M234.627,28.804v1.158
			h-6.871c-0.484,0.72-1.072,1.466-2.375,2.958l-1.047-0.669c1.583-2.083,2.554-4.939,2.835-6.972l2.605,0.72
			c0.102,0.026,0.229,0.103,0.229,0.206c0,0.18-0.153,0.36-0.383,0.592c-0.281,0.566-0.563,1.08-1.099,2.006H234.627z
			 M230.873,38.296h3.729v1.158h-3.729V43.7c0,1.697-0.537,2.212-2.273,2.212h-2.223l-0.408-1.389
			c0.536,0.154,1.2,0.257,1.762,0.257c0.716,0,0.716-0.309,0.716-1.08v-4.245h-3.015v-1.158h3.015v-2.675l1.609,0.206
			c0.408-0.643,0.715-1.312,0.894-2.058h-4.904v-1.158h7.944v0.926c-1.022,1.595-2.964,3.421-3.116,3.55V38.296z"/>
	</g>
	<g>
		<g>
			<g>
				<polygon style="fill-rule:evenodd;clip-rule:evenodd;fill:#AE7C3C;" points="57.681,18.251 23.618,18.251 23.618,23.966 
					46.327,23.966 46.327,45.4 52.004,45.4 52.004,23.966 57.681,23.966 				"/>
			</g>
			<g>
				<polygon style="fill:none;stroke:#FFFFFF;stroke-miterlimit:10;" points="57.681,18.251 23.618,18.251 23.618,23.966 
					46.327,23.966 46.327,45.4 52.004,45.4 52.004,23.966 57.681,23.966 				"/>
			</g>
		</g>
		<g>
			<g>
				<polygon style="fill-rule:evenodd;clip-rule:evenodd;fill:#7F7C74;" points="29.295,51.765 29.295,30.331 23.618,30.331 
					23.618,57.481 52.004,57.481 52.004,51.765 				"/>
			</g>
			<g>
				<polygon style="fill:none;stroke:#FFFFFF;stroke-miterlimit:10;" points="29.295,51.765 29.295,30.331 23.618,30.331 
					23.618,57.481 52.004,57.481 52.004,51.765 				"/>
			</g>
		</g>
	</g>
</g>
</svg>
